%TF.GenerationSoftware,KiCad,Pcbnew,9.0.7*%
%TF.CreationDate,2026-01-11T22:49:09+06:00*%
%TF.ProjectId,pcb,7063622e-6b69-4636-9164-5f7063625858,rev?*%
%TF.SameCoordinates,Original*%
%TF.FileFunction,Legend,Top*%
%TF.FilePolarity,Positive*%
%FSLAX46Y46*%
G04 Gerber Fmt 4.6, Leading zero omitted, Abs format (unit mm)*
G04 Created by KiCad (PCBNEW 9.0.7) date 2026-01-11 22:49:09*
%MOMM*%
%LPD*%
G01*
G04 APERTURE LIST*
%ADD10C,0.100000*%
%ADD11C,0.400000*%
%ADD12C,0.150000*%
%ADD13C,0.300000*%
%ADD14C,0.101600*%
%ADD15C,0.120000*%
%ADD16C,0.000000*%
%ADD17C,0.127000*%
%ADD18C,0.504000*%
G04 APERTURE END LIST*
D10*
X154000000Y-72000000D02*
X180000000Y-72000000D01*
X180000000Y-84000000D01*
X154000000Y-84000000D01*
X154000000Y-72000000D01*
G36*
X158107857Y-98499395D02*
G01*
X158211245Y-98723610D01*
X158314193Y-98499395D01*
X158417948Y-98499395D01*
X158210403Y-98926100D01*
X158004506Y-98499395D01*
X158107857Y-98499395D01*
G37*
G36*
X158649490Y-98354022D02*
G01*
X158539984Y-98354022D01*
X158592484Y-98264922D01*
X158743829Y-98264922D01*
X158743829Y-98898000D01*
X158649490Y-98898000D01*
X158649490Y-98354022D01*
G37*
G36*
X158963098Y-98851874D02*
G01*
X158967293Y-98830363D01*
X158980024Y-98811794D01*
X158998683Y-98799052D01*
X159020544Y-98794831D01*
X159042399Y-98799053D01*
X159061027Y-98811794D01*
X159073768Y-98830422D01*
X159077990Y-98852277D01*
X159073750Y-98874485D01*
X159061027Y-98893200D01*
X159042710Y-98905566D01*
X159020544Y-98909723D01*
X158997999Y-98905546D01*
X158979621Y-98893200D01*
X158967292Y-98874766D01*
X158963098Y-98851874D01*
G37*
G36*
X159309532Y-98354022D02*
G01*
X159200026Y-98354022D01*
X159252526Y-98264922D01*
X159403871Y-98264922D01*
X159403871Y-98898000D01*
X159309532Y-98898000D01*
X159309532Y-98354022D01*
G37*
G36*
X159623140Y-98851874D02*
G01*
X159627335Y-98830363D01*
X159640066Y-98811794D01*
X159658725Y-98799052D01*
X159680586Y-98794831D01*
X159702441Y-98799053D01*
X159721069Y-98811794D01*
X159733810Y-98830422D01*
X159738032Y-98852277D01*
X159733792Y-98874485D01*
X159721069Y-98893200D01*
X159702752Y-98905566D01*
X159680586Y-98909723D01*
X159658041Y-98905546D01*
X159639663Y-98893200D01*
X159627334Y-98874766D01*
X159623140Y-98851874D01*
G37*
G36*
X159969574Y-98354022D02*
G01*
X159860068Y-98354022D01*
X159912568Y-98264922D01*
X160063913Y-98264922D01*
X160063913Y-98898000D01*
X159969574Y-98898000D01*
X159969574Y-98354022D01*
G37*
G36*
X160283182Y-98851874D02*
G01*
X160287377Y-98830363D01*
X160300108Y-98811794D01*
X160318766Y-98799052D01*
X160340628Y-98794831D01*
X160362482Y-98799053D01*
X160381111Y-98811794D01*
X160393851Y-98830422D01*
X160398073Y-98852277D01*
X160393834Y-98874485D01*
X160381111Y-98893200D01*
X160362794Y-98905566D01*
X160340628Y-98909723D01*
X160318083Y-98905546D01*
X160299705Y-98893200D01*
X160287376Y-98874766D01*
X160283182Y-98851874D01*
G37*
G36*
X160629616Y-98354022D02*
G01*
X160520109Y-98354022D01*
X160572609Y-98264922D01*
X160723954Y-98264922D01*
X160723954Y-98898000D01*
X160629616Y-98898000D01*
X160629616Y-98354022D01*
G37*
X97086704Y-53493734D02*
X97086704Y-53017544D01*
X97372419Y-53588972D02*
X96372419Y-53255639D01*
X96372419Y-53255639D02*
X97372419Y-52922306D01*
X97372419Y-52588972D02*
X96372419Y-52588972D01*
X96753371Y-52588972D02*
X96705752Y-52493734D01*
X96705752Y-52493734D02*
X96705752Y-52303258D01*
X96705752Y-52303258D02*
X96753371Y-52208020D01*
X96753371Y-52208020D02*
X96800990Y-52160401D01*
X96800990Y-52160401D02*
X96896228Y-52112782D01*
X96896228Y-52112782D02*
X97181942Y-52112782D01*
X97181942Y-52112782D02*
X97277180Y-52160401D01*
X97277180Y-52160401D02*
X97324800Y-52208020D01*
X97324800Y-52208020D02*
X97372419Y-52303258D01*
X97372419Y-52303258D02*
X97372419Y-52493734D01*
X97372419Y-52493734D02*
X97324800Y-52588972D01*
X97372419Y-51541353D02*
X97324800Y-51636591D01*
X97324800Y-51636591D02*
X97277180Y-51684210D01*
X97277180Y-51684210D02*
X97181942Y-51731829D01*
X97181942Y-51731829D02*
X96896228Y-51731829D01*
X96896228Y-51731829D02*
X96800990Y-51684210D01*
X96800990Y-51684210D02*
X96753371Y-51636591D01*
X96753371Y-51636591D02*
X96705752Y-51541353D01*
X96705752Y-51541353D02*
X96705752Y-51398496D01*
X96705752Y-51398496D02*
X96753371Y-51303258D01*
X96753371Y-51303258D02*
X96800990Y-51255639D01*
X96800990Y-51255639D02*
X96896228Y-51208020D01*
X96896228Y-51208020D02*
X97181942Y-51208020D01*
X97181942Y-51208020D02*
X97277180Y-51255639D01*
X97277180Y-51255639D02*
X97324800Y-51303258D01*
X97324800Y-51303258D02*
X97372419Y-51398496D01*
X97372419Y-51398496D02*
X97372419Y-51541353D01*
X97372419Y-50779448D02*
X96372419Y-50779448D01*
X96753371Y-50779448D02*
X96705752Y-50684210D01*
X96705752Y-50684210D02*
X96705752Y-50493734D01*
X96705752Y-50493734D02*
X96753371Y-50398496D01*
X96753371Y-50398496D02*
X96800990Y-50350877D01*
X96800990Y-50350877D02*
X96896228Y-50303258D01*
X96896228Y-50303258D02*
X97181942Y-50303258D01*
X97181942Y-50303258D02*
X97277180Y-50350877D01*
X97277180Y-50350877D02*
X97324800Y-50398496D01*
X97324800Y-50398496D02*
X97372419Y-50493734D01*
X97372419Y-50493734D02*
X97372419Y-50684210D01*
X97372419Y-50684210D02*
X97324800Y-50779448D01*
X97372419Y-49446115D02*
X96848609Y-49446115D01*
X96848609Y-49446115D02*
X96753371Y-49493734D01*
X96753371Y-49493734D02*
X96705752Y-49588972D01*
X96705752Y-49588972D02*
X96705752Y-49779448D01*
X96705752Y-49779448D02*
X96753371Y-49874686D01*
X97324800Y-49446115D02*
X97372419Y-49541353D01*
X97372419Y-49541353D02*
X97372419Y-49779448D01*
X97372419Y-49779448D02*
X97324800Y-49874686D01*
X97324800Y-49874686D02*
X97229561Y-49922305D01*
X97229561Y-49922305D02*
X97134323Y-49922305D01*
X97134323Y-49922305D02*
X97039085Y-49874686D01*
X97039085Y-49874686D02*
X96991466Y-49779448D01*
X96991466Y-49779448D02*
X96991466Y-49541353D01*
X96991466Y-49541353D02*
X96943847Y-49446115D01*
D11*
G36*
X158528681Y-96362581D02*
G01*
X159325890Y-96362581D01*
X159325890Y-95541926D01*
X159872994Y-95541926D01*
X159872994Y-97660000D01*
X159325890Y-97660000D01*
X159325890Y-96792449D01*
X158528681Y-96792449D01*
X158528681Y-97660000D01*
X157981577Y-97660000D01*
X157981577Y-95541926D01*
X158528681Y-95541926D01*
X158528681Y-96362581D01*
G37*
G36*
X162319819Y-97660000D02*
G01*
X161734613Y-97660000D01*
X161608583Y-97292658D01*
X160824564Y-97292658D01*
X160698535Y-97660000D01*
X160113329Y-97660000D01*
X160413409Y-96870607D01*
X160970133Y-96870607D01*
X161463015Y-96870607D01*
X161216574Y-96169141D01*
X160970133Y-96870607D01*
X160413409Y-96870607D01*
X160917010Y-95545833D01*
X161516137Y-95545833D01*
X162319819Y-97660000D01*
G37*
G36*
X163999721Y-96252550D02*
G01*
X163895863Y-96147887D01*
X163784249Y-96076029D01*
X163662865Y-96033251D01*
X163528454Y-96018688D01*
X163408504Y-96030164D01*
X163299843Y-96063750D01*
X163201461Y-96117337D01*
X163118981Y-96186360D01*
X163051793Y-96270573D01*
X162999791Y-96371008D01*
X162967375Y-96481249D01*
X162956315Y-96602062D01*
X162967431Y-96725228D01*
X162999791Y-96835924D01*
X163052000Y-96936524D01*
X163120324Y-97022037D01*
X163203867Y-97092290D01*
X163301186Y-97145990D01*
X163408325Y-97179611D01*
X163525645Y-97191053D01*
X163651733Y-97177511D01*
X163771218Y-97136968D01*
X163886635Y-97067692D01*
X163999721Y-96965617D01*
X163999721Y-97616280D01*
X163943911Y-97635819D01*
X163819331Y-97675449D01*
X163708828Y-97701521D01*
X163599885Y-97717329D01*
X163493405Y-97722526D01*
X163349644Y-97713278D01*
X163210650Y-97685733D01*
X163075262Y-97639727D01*
X162946800Y-97576743D01*
X162829650Y-97499210D01*
X162722819Y-97406598D01*
X162628554Y-97301008D01*
X162547062Y-97182546D01*
X162478088Y-97050003D01*
X162427252Y-96909808D01*
X162396317Y-96760146D01*
X162385764Y-96599253D01*
X162396197Y-96438322D01*
X162426688Y-96289623D01*
X162476622Y-96151311D01*
X162544805Y-96020671D01*
X162625833Y-95904086D01*
X162720010Y-95800334D01*
X162826718Y-95709498D01*
X162944299Y-95632900D01*
X163073796Y-95570136D01*
X163210167Y-95524101D01*
X163350581Y-95496495D01*
X163496214Y-95487215D01*
X163621217Y-95493888D01*
X163743754Y-95513838D01*
X163866067Y-95546875D01*
X163999721Y-95596270D01*
X163999721Y-96252550D01*
G37*
G36*
X164982554Y-96415582D02*
G01*
X165651779Y-95541926D01*
X166329431Y-95541926D01*
X165492167Y-96544787D01*
X166407833Y-97660000D01*
X165696598Y-97660000D01*
X164982554Y-96741402D01*
X164982554Y-97660000D01*
X164435450Y-97660000D01*
X164435450Y-95541926D01*
X164982554Y-95541926D01*
X164982554Y-96415582D01*
G37*
G36*
X167850942Y-96010872D02*
G01*
X167198325Y-96010872D01*
X167198325Y-96362581D01*
X167815771Y-96362581D01*
X167815771Y-96831528D01*
X167198325Y-96831528D01*
X167198325Y-97191053D01*
X167850942Y-97191053D01*
X167850942Y-97660000D01*
X166651221Y-97660000D01*
X166651221Y-95541926D01*
X167850942Y-95541926D01*
X167850942Y-96010872D01*
G37*
G36*
X169266769Y-95563457D02*
G01*
X169404937Y-95601643D01*
X169526476Y-95664139D01*
X169621458Y-95743182D01*
X169696089Y-95839668D01*
X169749930Y-95950544D01*
X169782170Y-96071384D01*
X169793161Y-96202725D01*
X169779053Y-96359625D01*
X169739571Y-96488070D01*
X169676902Y-96593757D01*
X169590300Y-96680558D01*
X169477850Y-96748408D01*
X169333985Y-96796845D01*
X169997592Y-97663907D01*
X169314445Y-97663907D01*
X168792742Y-96850090D01*
X168792742Y-97663907D01*
X168245639Y-97663907D01*
X168245639Y-96493740D01*
X168792742Y-96493740D01*
X168895935Y-96493740D01*
X169001835Y-96485144D01*
X169082675Y-96461900D01*
X169143964Y-96426451D01*
X169191338Y-96375960D01*
X169220177Y-96312738D01*
X169230426Y-96232766D01*
X169220174Y-96152799D01*
X169191334Y-96089622D01*
X169143964Y-96039204D01*
X169082665Y-96003687D01*
X169001825Y-95980403D01*
X168895935Y-95971793D01*
X168792742Y-95971793D01*
X168792742Y-96493740D01*
X168245639Y-96493740D01*
X168245639Y-95549741D01*
X169097558Y-95549741D01*
X169266769Y-95563457D01*
G37*
G36*
X171279187Y-95555118D02*
G01*
X171425219Y-95591893D01*
X171545573Y-95649482D01*
X171644644Y-95727184D01*
X171724436Y-95825144D01*
X171782925Y-95942066D01*
X171819907Y-96081757D01*
X171833077Y-96249253D01*
X171819907Y-96416749D01*
X171782925Y-96556440D01*
X171724436Y-96673362D01*
X171644644Y-96771322D01*
X171545573Y-96849023D01*
X171425219Y-96906613D01*
X171279187Y-96943388D01*
X171101814Y-96956580D01*
X170777948Y-96956580D01*
X170777948Y-97656092D01*
X170230844Y-97656092D01*
X170230844Y-96513279D01*
X170777948Y-96513279D01*
X170960031Y-96513279D01*
X171077755Y-96500680D01*
X171159576Y-96467452D01*
X171215255Y-96416738D01*
X171249836Y-96346333D01*
X171262526Y-96249253D01*
X171249836Y-96152173D01*
X171215255Y-96081767D01*
X171159576Y-96031053D01*
X171077755Y-95997825D01*
X170960031Y-95985226D01*
X170777948Y-95985226D01*
X170777948Y-96513279D01*
X170230844Y-96513279D01*
X170230844Y-95541926D01*
X171101814Y-95541926D01*
X171279187Y-95555118D01*
G37*
G36*
X174018074Y-97660000D02*
G01*
X173432868Y-97660000D01*
X173306839Y-97292658D01*
X172522819Y-97292658D01*
X172396790Y-97660000D01*
X171811584Y-97660000D01*
X172111664Y-96870607D01*
X172668388Y-96870607D01*
X173161270Y-96870607D01*
X172914829Y-96169141D01*
X172668388Y-96870607D01*
X172111664Y-96870607D01*
X172615265Y-95545833D01*
X173214393Y-95545833D01*
X174018074Y-97660000D01*
G37*
G36*
X175210564Y-95551761D02*
G01*
X175345062Y-95580843D01*
X175473517Y-95629120D01*
X175595001Y-95693981D01*
X175704925Y-95771118D01*
X175804222Y-95860907D01*
X175891563Y-95962204D01*
X175965695Y-96074219D01*
X176026971Y-96197962D01*
X176072157Y-96328227D01*
X176099216Y-96462172D01*
X176108304Y-96600963D01*
X176099413Y-96737951D01*
X176072871Y-96871023D01*
X176028437Y-97001277D01*
X175967993Y-97125039D01*
X175894324Y-97237554D01*
X175807031Y-97339797D01*
X175707663Y-97430333D01*
X175597736Y-97507906D01*
X175476326Y-97572927D01*
X175347846Y-97621053D01*
X175212433Y-97650135D01*
X175068562Y-97660000D01*
X174255966Y-97660000D01*
X174255966Y-97191053D01*
X174803070Y-97191053D01*
X174930321Y-97191053D01*
X175069293Y-97179401D01*
X175187387Y-97146357D01*
X175292765Y-97092430D01*
X175378140Y-97023258D01*
X175446400Y-96938108D01*
X175496842Y-96837267D01*
X175527247Y-96725930D01*
X175537753Y-96600963D01*
X175526969Y-96478219D01*
X175495377Y-96366001D01*
X175443813Y-96263978D01*
X175375331Y-96178667D01*
X175289951Y-96109522D01*
X175184578Y-96055690D01*
X175066823Y-96022495D01*
X174930321Y-96010872D01*
X174803070Y-96010872D01*
X174803070Y-97191053D01*
X174255966Y-97191053D01*
X174255966Y-95541926D01*
X175068562Y-95541926D01*
X175210564Y-95551761D01*
G37*
D10*
X189987524Y-62803884D02*
X190987524Y-62803884D01*
X190987524Y-62803884D02*
X190987524Y-63041979D01*
X190987524Y-63041979D02*
X190939905Y-63184836D01*
X190939905Y-63184836D02*
X190844667Y-63280074D01*
X190844667Y-63280074D02*
X190749429Y-63327693D01*
X190749429Y-63327693D02*
X190558953Y-63375312D01*
X190558953Y-63375312D02*
X190416096Y-63375312D01*
X190416096Y-63375312D02*
X190225620Y-63327693D01*
X190225620Y-63327693D02*
X190130382Y-63280074D01*
X190130382Y-63280074D02*
X190035144Y-63184836D01*
X190035144Y-63184836D02*
X189987524Y-63041979D01*
X189987524Y-63041979D02*
X189987524Y-62803884D01*
X190035144Y-64184836D02*
X189987524Y-64089598D01*
X189987524Y-64089598D02*
X189987524Y-63899122D01*
X189987524Y-63899122D02*
X190035144Y-63803884D01*
X190035144Y-63803884D02*
X190130382Y-63756265D01*
X190130382Y-63756265D02*
X190511334Y-63756265D01*
X190511334Y-63756265D02*
X190606572Y-63803884D01*
X190606572Y-63803884D02*
X190654191Y-63899122D01*
X190654191Y-63899122D02*
X190654191Y-64089598D01*
X190654191Y-64089598D02*
X190606572Y-64184836D01*
X190606572Y-64184836D02*
X190511334Y-64232455D01*
X190511334Y-64232455D02*
X190416096Y-64232455D01*
X190416096Y-64232455D02*
X190320858Y-63756265D01*
X190035144Y-64613408D02*
X189987524Y-64708646D01*
X189987524Y-64708646D02*
X189987524Y-64899122D01*
X189987524Y-64899122D02*
X190035144Y-64994360D01*
X190035144Y-64994360D02*
X190130382Y-65041979D01*
X190130382Y-65041979D02*
X190178001Y-65041979D01*
X190178001Y-65041979D02*
X190273239Y-64994360D01*
X190273239Y-64994360D02*
X190320858Y-64899122D01*
X190320858Y-64899122D02*
X190320858Y-64756265D01*
X190320858Y-64756265D02*
X190368477Y-64661027D01*
X190368477Y-64661027D02*
X190463715Y-64613408D01*
X190463715Y-64613408D02*
X190511334Y-64613408D01*
X190511334Y-64613408D02*
X190606572Y-64661027D01*
X190606572Y-64661027D02*
X190654191Y-64756265D01*
X190654191Y-64756265D02*
X190654191Y-64899122D01*
X190654191Y-64899122D02*
X190606572Y-64994360D01*
X189987524Y-65470551D02*
X190654191Y-65470551D01*
X190987524Y-65470551D02*
X190939905Y-65422932D01*
X190939905Y-65422932D02*
X190892286Y-65470551D01*
X190892286Y-65470551D02*
X190939905Y-65518170D01*
X190939905Y-65518170D02*
X190987524Y-65470551D01*
X190987524Y-65470551D02*
X190892286Y-65470551D01*
X190654191Y-66375312D02*
X189844667Y-66375312D01*
X189844667Y-66375312D02*
X189749429Y-66327693D01*
X189749429Y-66327693D02*
X189701810Y-66280074D01*
X189701810Y-66280074D02*
X189654191Y-66184836D01*
X189654191Y-66184836D02*
X189654191Y-66041979D01*
X189654191Y-66041979D02*
X189701810Y-65946741D01*
X190035144Y-66375312D02*
X189987524Y-66280074D01*
X189987524Y-66280074D02*
X189987524Y-66089598D01*
X189987524Y-66089598D02*
X190035144Y-65994360D01*
X190035144Y-65994360D02*
X190082763Y-65946741D01*
X190082763Y-65946741D02*
X190178001Y-65899122D01*
X190178001Y-65899122D02*
X190463715Y-65899122D01*
X190463715Y-65899122D02*
X190558953Y-65946741D01*
X190558953Y-65946741D02*
X190606572Y-65994360D01*
X190606572Y-65994360D02*
X190654191Y-66089598D01*
X190654191Y-66089598D02*
X190654191Y-66280074D01*
X190654191Y-66280074D02*
X190606572Y-66375312D01*
X190654191Y-66851503D02*
X189987524Y-66851503D01*
X190558953Y-66851503D02*
X190606572Y-66899122D01*
X190606572Y-66899122D02*
X190654191Y-66994360D01*
X190654191Y-66994360D02*
X190654191Y-67137217D01*
X190654191Y-67137217D02*
X190606572Y-67232455D01*
X190606572Y-67232455D02*
X190511334Y-67280074D01*
X190511334Y-67280074D02*
X189987524Y-67280074D01*
X190035144Y-68137217D02*
X189987524Y-68041979D01*
X189987524Y-68041979D02*
X189987524Y-67851503D01*
X189987524Y-67851503D02*
X190035144Y-67756265D01*
X190035144Y-67756265D02*
X190130382Y-67708646D01*
X190130382Y-67708646D02*
X190511334Y-67708646D01*
X190511334Y-67708646D02*
X190606572Y-67756265D01*
X190606572Y-67756265D02*
X190654191Y-67851503D01*
X190654191Y-67851503D02*
X190654191Y-68041979D01*
X190654191Y-68041979D02*
X190606572Y-68137217D01*
X190606572Y-68137217D02*
X190511334Y-68184836D01*
X190511334Y-68184836D02*
X190416096Y-68184836D01*
X190416096Y-68184836D02*
X190320858Y-67708646D01*
X189987524Y-69041979D02*
X190987524Y-69041979D01*
X190035144Y-69041979D02*
X189987524Y-68946741D01*
X189987524Y-68946741D02*
X189987524Y-68756265D01*
X189987524Y-68756265D02*
X190035144Y-68661027D01*
X190035144Y-68661027D02*
X190082763Y-68613408D01*
X190082763Y-68613408D02*
X190178001Y-68565789D01*
X190178001Y-68565789D02*
X190463715Y-68565789D01*
X190463715Y-68565789D02*
X190558953Y-68613408D01*
X190558953Y-68613408D02*
X190606572Y-68661027D01*
X190606572Y-68661027D02*
X190654191Y-68756265D01*
X190654191Y-68756265D02*
X190654191Y-68946741D01*
X190654191Y-68946741D02*
X190606572Y-69041979D01*
X189987524Y-70280075D02*
X190654191Y-70280075D01*
X190987524Y-70280075D02*
X190939905Y-70232456D01*
X190939905Y-70232456D02*
X190892286Y-70280075D01*
X190892286Y-70280075D02*
X190939905Y-70327694D01*
X190939905Y-70327694D02*
X190987524Y-70280075D01*
X190987524Y-70280075D02*
X190892286Y-70280075D01*
X190654191Y-70756265D02*
X189987524Y-70756265D01*
X190558953Y-70756265D02*
X190606572Y-70803884D01*
X190606572Y-70803884D02*
X190654191Y-70899122D01*
X190654191Y-70899122D02*
X190654191Y-71041979D01*
X190654191Y-71041979D02*
X190606572Y-71137217D01*
X190606572Y-71137217D02*
X190511334Y-71184836D01*
X190511334Y-71184836D02*
X189987524Y-71184836D01*
X190511334Y-72756265D02*
X190463715Y-72899122D01*
X190463715Y-72899122D02*
X190416096Y-72946741D01*
X190416096Y-72946741D02*
X190320858Y-72994360D01*
X190320858Y-72994360D02*
X190178001Y-72994360D01*
X190178001Y-72994360D02*
X190082763Y-72946741D01*
X190082763Y-72946741D02*
X190035144Y-72899122D01*
X190035144Y-72899122D02*
X189987524Y-72803884D01*
X189987524Y-72803884D02*
X189987524Y-72422932D01*
X189987524Y-72422932D02*
X190987524Y-72422932D01*
X190987524Y-72422932D02*
X190987524Y-72756265D01*
X190987524Y-72756265D02*
X190939905Y-72851503D01*
X190939905Y-72851503D02*
X190892286Y-72899122D01*
X190892286Y-72899122D02*
X190797048Y-72946741D01*
X190797048Y-72946741D02*
X190701810Y-72946741D01*
X190701810Y-72946741D02*
X190606572Y-72899122D01*
X190606572Y-72899122D02*
X190558953Y-72851503D01*
X190558953Y-72851503D02*
X190511334Y-72756265D01*
X190511334Y-72756265D02*
X190511334Y-72422932D01*
X189987524Y-73422932D02*
X190654191Y-73422932D01*
X190987524Y-73422932D02*
X190939905Y-73375313D01*
X190939905Y-73375313D02*
X190892286Y-73422932D01*
X190892286Y-73422932D02*
X190939905Y-73470551D01*
X190939905Y-73470551D02*
X190987524Y-73422932D01*
X190987524Y-73422932D02*
X190892286Y-73422932D01*
X190035144Y-73851503D02*
X189987524Y-73946741D01*
X189987524Y-73946741D02*
X189987524Y-74137217D01*
X189987524Y-74137217D02*
X190035144Y-74232455D01*
X190035144Y-74232455D02*
X190130382Y-74280074D01*
X190130382Y-74280074D02*
X190178001Y-74280074D01*
X190178001Y-74280074D02*
X190273239Y-74232455D01*
X190273239Y-74232455D02*
X190320858Y-74137217D01*
X190320858Y-74137217D02*
X190320858Y-73994360D01*
X190320858Y-73994360D02*
X190368477Y-73899122D01*
X190368477Y-73899122D02*
X190463715Y-73851503D01*
X190463715Y-73851503D02*
X190511334Y-73851503D01*
X190511334Y-73851503D02*
X190606572Y-73899122D01*
X190606572Y-73899122D02*
X190654191Y-73994360D01*
X190654191Y-73994360D02*
X190654191Y-74137217D01*
X190654191Y-74137217D02*
X190606572Y-74232455D01*
X189987524Y-74708646D02*
X190987524Y-74708646D01*
X189987524Y-75137217D02*
X190511334Y-75137217D01*
X190511334Y-75137217D02*
X190606572Y-75089598D01*
X190606572Y-75089598D02*
X190654191Y-74994360D01*
X190654191Y-74994360D02*
X190654191Y-74851503D01*
X190654191Y-74851503D02*
X190606572Y-74756265D01*
X190606572Y-74756265D02*
X190558953Y-74708646D01*
X189987524Y-75613408D02*
X190987524Y-75613408D01*
X190368477Y-75708646D02*
X189987524Y-75994360D01*
X190654191Y-75994360D02*
X190273239Y-75613408D01*
X190035144Y-76803884D02*
X189987524Y-76708646D01*
X189987524Y-76708646D02*
X189987524Y-76518170D01*
X189987524Y-76518170D02*
X190035144Y-76422932D01*
X190035144Y-76422932D02*
X190130382Y-76375313D01*
X190130382Y-76375313D02*
X190511334Y-76375313D01*
X190511334Y-76375313D02*
X190606572Y-76422932D01*
X190606572Y-76422932D02*
X190654191Y-76518170D01*
X190654191Y-76518170D02*
X190654191Y-76708646D01*
X190654191Y-76708646D02*
X190606572Y-76803884D01*
X190606572Y-76803884D02*
X190511334Y-76851503D01*
X190511334Y-76851503D02*
X190416096Y-76851503D01*
X190416096Y-76851503D02*
X190320858Y-76375313D01*
X189987524Y-77280075D02*
X190987524Y-77280075D01*
X190368477Y-77375313D02*
X189987524Y-77661027D01*
X190654191Y-77661027D02*
X190273239Y-77280075D01*
X190035144Y-78137218D02*
X189987524Y-78137218D01*
X189987524Y-78137218D02*
X189892286Y-78089599D01*
X189892286Y-78089599D02*
X189844667Y-78041980D01*
X189987524Y-79327694D02*
X190987524Y-79327694D01*
X189987524Y-79899122D02*
X190558953Y-79470551D01*
X190987524Y-79899122D02*
X190416096Y-79327694D01*
X190654191Y-80232456D02*
X189987524Y-80470551D01*
X190654191Y-80708646D02*
X189987524Y-80470551D01*
X189987524Y-80470551D02*
X189749429Y-80375313D01*
X189749429Y-80375313D02*
X189701810Y-80327694D01*
X189701810Y-80327694D02*
X189654191Y-80232456D01*
X189987524Y-81089599D02*
X190654191Y-81089599D01*
X190463715Y-81089599D02*
X190558953Y-81137218D01*
X190558953Y-81137218D02*
X190606572Y-81184837D01*
X190606572Y-81184837D02*
X190654191Y-81280075D01*
X190654191Y-81280075D02*
X190654191Y-81375313D01*
X190654191Y-82137218D02*
X189844667Y-82137218D01*
X189844667Y-82137218D02*
X189749429Y-82089599D01*
X189749429Y-82089599D02*
X189701810Y-82041980D01*
X189701810Y-82041980D02*
X189654191Y-81946742D01*
X189654191Y-81946742D02*
X189654191Y-81803885D01*
X189654191Y-81803885D02*
X189701810Y-81708647D01*
X190035144Y-82137218D02*
X189987524Y-82041980D01*
X189987524Y-82041980D02*
X189987524Y-81851504D01*
X189987524Y-81851504D02*
X190035144Y-81756266D01*
X190035144Y-81756266D02*
X190082763Y-81708647D01*
X190082763Y-81708647D02*
X190178001Y-81661028D01*
X190178001Y-81661028D02*
X190463715Y-81661028D01*
X190463715Y-81661028D02*
X190558953Y-81708647D01*
X190558953Y-81708647D02*
X190606572Y-81756266D01*
X190606572Y-81756266D02*
X190654191Y-81851504D01*
X190654191Y-81851504D02*
X190654191Y-82041980D01*
X190654191Y-82041980D02*
X190606572Y-82137218D01*
X190654191Y-82518171D02*
X189987524Y-82756266D01*
X190654191Y-82994361D02*
X189987524Y-82756266D01*
X189987524Y-82756266D02*
X189749429Y-82661028D01*
X189749429Y-82661028D02*
X189701810Y-82613409D01*
X189701810Y-82613409D02*
X189654191Y-82518171D01*
X190654191Y-83280076D02*
X190654191Y-83803885D01*
X190654191Y-83803885D02*
X189987524Y-83280076D01*
X189987524Y-83280076D02*
X189987524Y-83803885D01*
X190035144Y-84137219D02*
X189987524Y-84232457D01*
X189987524Y-84232457D02*
X189987524Y-84422933D01*
X189987524Y-84422933D02*
X190035144Y-84518171D01*
X190035144Y-84518171D02*
X190130382Y-84565790D01*
X190130382Y-84565790D02*
X190178001Y-84565790D01*
X190178001Y-84565790D02*
X190273239Y-84518171D01*
X190273239Y-84518171D02*
X190320858Y-84422933D01*
X190320858Y-84422933D02*
X190320858Y-84280076D01*
X190320858Y-84280076D02*
X190368477Y-84184838D01*
X190368477Y-84184838D02*
X190463715Y-84137219D01*
X190463715Y-84137219D02*
X190511334Y-84137219D01*
X190511334Y-84137219D02*
X190606572Y-84184838D01*
X190606572Y-84184838D02*
X190654191Y-84280076D01*
X190654191Y-84280076D02*
X190654191Y-84422933D01*
X190654191Y-84422933D02*
X190606572Y-84518171D01*
X190654191Y-84851505D02*
X190654191Y-85232457D01*
X190987524Y-84994362D02*
X190130382Y-84994362D01*
X190130382Y-84994362D02*
X190035144Y-85041981D01*
X190035144Y-85041981D02*
X189987524Y-85137219D01*
X189987524Y-85137219D02*
X189987524Y-85232457D01*
X189987524Y-85994362D02*
X190511334Y-85994362D01*
X190511334Y-85994362D02*
X190606572Y-85946743D01*
X190606572Y-85946743D02*
X190654191Y-85851505D01*
X190654191Y-85851505D02*
X190654191Y-85661029D01*
X190654191Y-85661029D02*
X190606572Y-85565791D01*
X190035144Y-85994362D02*
X189987524Y-85899124D01*
X189987524Y-85899124D02*
X189987524Y-85661029D01*
X189987524Y-85661029D02*
X190035144Y-85565791D01*
X190035144Y-85565791D02*
X190130382Y-85518172D01*
X190130382Y-85518172D02*
X190225620Y-85518172D01*
X190225620Y-85518172D02*
X190320858Y-85565791D01*
X190320858Y-85565791D02*
X190368477Y-85661029D01*
X190368477Y-85661029D02*
X190368477Y-85899124D01*
X190368477Y-85899124D02*
X190416096Y-85994362D01*
X190654191Y-86470553D02*
X189987524Y-86470553D01*
X190558953Y-86470553D02*
X190606572Y-86518172D01*
X190606572Y-86518172D02*
X190654191Y-86613410D01*
X190654191Y-86613410D02*
X190654191Y-86756267D01*
X190654191Y-86756267D02*
X190606572Y-86851505D01*
X190606572Y-86851505D02*
X190511334Y-86899124D01*
X190511334Y-86899124D02*
X189987524Y-86899124D01*
X188472819Y-63375312D02*
X188425200Y-63327693D01*
X188425200Y-63327693D02*
X188377580Y-63184836D01*
X188377580Y-63184836D02*
X188377580Y-63089598D01*
X188377580Y-63089598D02*
X188425200Y-62946741D01*
X188425200Y-62946741D02*
X188520438Y-62851503D01*
X188520438Y-62851503D02*
X188615676Y-62803884D01*
X188615676Y-62803884D02*
X188806152Y-62756265D01*
X188806152Y-62756265D02*
X188949009Y-62756265D01*
X188949009Y-62756265D02*
X189139485Y-62803884D01*
X189139485Y-62803884D02*
X189234723Y-62851503D01*
X189234723Y-62851503D02*
X189329961Y-62946741D01*
X189329961Y-62946741D02*
X189377580Y-63089598D01*
X189377580Y-63089598D02*
X189377580Y-63184836D01*
X189377580Y-63184836D02*
X189329961Y-63327693D01*
X189329961Y-63327693D02*
X189282342Y-63375312D01*
X188377580Y-63803884D02*
X189044247Y-63803884D01*
X188853771Y-63803884D02*
X188949009Y-63851503D01*
X188949009Y-63851503D02*
X188996628Y-63899122D01*
X188996628Y-63899122D02*
X189044247Y-63994360D01*
X189044247Y-63994360D02*
X189044247Y-64089598D01*
X188425200Y-64803884D02*
X188377580Y-64708646D01*
X188377580Y-64708646D02*
X188377580Y-64518170D01*
X188377580Y-64518170D02*
X188425200Y-64422932D01*
X188425200Y-64422932D02*
X188520438Y-64375313D01*
X188520438Y-64375313D02*
X188901390Y-64375313D01*
X188901390Y-64375313D02*
X188996628Y-64422932D01*
X188996628Y-64422932D02*
X189044247Y-64518170D01*
X189044247Y-64518170D02*
X189044247Y-64708646D01*
X189044247Y-64708646D02*
X188996628Y-64803884D01*
X188996628Y-64803884D02*
X188901390Y-64851503D01*
X188901390Y-64851503D02*
X188806152Y-64851503D01*
X188806152Y-64851503D02*
X188710914Y-64375313D01*
X188377580Y-65708646D02*
X188901390Y-65708646D01*
X188901390Y-65708646D02*
X188996628Y-65661027D01*
X188996628Y-65661027D02*
X189044247Y-65565789D01*
X189044247Y-65565789D02*
X189044247Y-65375313D01*
X189044247Y-65375313D02*
X188996628Y-65280075D01*
X188425200Y-65708646D02*
X188377580Y-65613408D01*
X188377580Y-65613408D02*
X188377580Y-65375313D01*
X188377580Y-65375313D02*
X188425200Y-65280075D01*
X188425200Y-65280075D02*
X188520438Y-65232456D01*
X188520438Y-65232456D02*
X188615676Y-65232456D01*
X188615676Y-65232456D02*
X188710914Y-65280075D01*
X188710914Y-65280075D02*
X188758533Y-65375313D01*
X188758533Y-65375313D02*
X188758533Y-65613408D01*
X188758533Y-65613408D02*
X188806152Y-65708646D01*
X189044247Y-66041980D02*
X189044247Y-66422932D01*
X189377580Y-66184837D02*
X188520438Y-66184837D01*
X188520438Y-66184837D02*
X188425200Y-66232456D01*
X188425200Y-66232456D02*
X188377580Y-66327694D01*
X188377580Y-66327694D02*
X188377580Y-66422932D01*
X188425200Y-67137218D02*
X188377580Y-67041980D01*
X188377580Y-67041980D02*
X188377580Y-66851504D01*
X188377580Y-66851504D02*
X188425200Y-66756266D01*
X188425200Y-66756266D02*
X188520438Y-66708647D01*
X188520438Y-66708647D02*
X188901390Y-66708647D01*
X188901390Y-66708647D02*
X188996628Y-66756266D01*
X188996628Y-66756266D02*
X189044247Y-66851504D01*
X189044247Y-66851504D02*
X189044247Y-67041980D01*
X189044247Y-67041980D02*
X188996628Y-67137218D01*
X188996628Y-67137218D02*
X188901390Y-67184837D01*
X188901390Y-67184837D02*
X188806152Y-67184837D01*
X188806152Y-67184837D02*
X188710914Y-66708647D01*
X188377580Y-68041980D02*
X189377580Y-68041980D01*
X188425200Y-68041980D02*
X188377580Y-67946742D01*
X188377580Y-67946742D02*
X188377580Y-67756266D01*
X188377580Y-67756266D02*
X188425200Y-67661028D01*
X188425200Y-67661028D02*
X188472819Y-67613409D01*
X188472819Y-67613409D02*
X188568057Y-67565790D01*
X188568057Y-67565790D02*
X188853771Y-67565790D01*
X188853771Y-67565790D02*
X188949009Y-67613409D01*
X188949009Y-67613409D02*
X188996628Y-67661028D01*
X188996628Y-67661028D02*
X189044247Y-67756266D01*
X189044247Y-67756266D02*
X189044247Y-67946742D01*
X189044247Y-67946742D02*
X188996628Y-68041980D01*
X188377580Y-69422933D02*
X188425200Y-69327695D01*
X188425200Y-69327695D02*
X188472819Y-69280076D01*
X188472819Y-69280076D02*
X188568057Y-69232457D01*
X188568057Y-69232457D02*
X188853771Y-69232457D01*
X188853771Y-69232457D02*
X188949009Y-69280076D01*
X188949009Y-69280076D02*
X188996628Y-69327695D01*
X188996628Y-69327695D02*
X189044247Y-69422933D01*
X189044247Y-69422933D02*
X189044247Y-69565790D01*
X189044247Y-69565790D02*
X188996628Y-69661028D01*
X188996628Y-69661028D02*
X188949009Y-69708647D01*
X188949009Y-69708647D02*
X188853771Y-69756266D01*
X188853771Y-69756266D02*
X188568057Y-69756266D01*
X188568057Y-69756266D02*
X188472819Y-69708647D01*
X188472819Y-69708647D02*
X188425200Y-69661028D01*
X188425200Y-69661028D02*
X188377580Y-69565790D01*
X188377580Y-69565790D02*
X188377580Y-69422933D01*
X189044247Y-70184838D02*
X188377580Y-70184838D01*
X188949009Y-70184838D02*
X188996628Y-70232457D01*
X188996628Y-70232457D02*
X189044247Y-70327695D01*
X189044247Y-70327695D02*
X189044247Y-70470552D01*
X189044247Y-70470552D02*
X188996628Y-70565790D01*
X188996628Y-70565790D02*
X188901390Y-70613409D01*
X188901390Y-70613409D02*
X188377580Y-70613409D01*
X189377580Y-72137219D02*
X188663295Y-72137219D01*
X188663295Y-72137219D02*
X188520438Y-72089600D01*
X188520438Y-72089600D02*
X188425200Y-71994362D01*
X188425200Y-71994362D02*
X188377580Y-71851505D01*
X188377580Y-71851505D02*
X188377580Y-71756267D01*
X188377580Y-73041981D02*
X188901390Y-73041981D01*
X188901390Y-73041981D02*
X188996628Y-72994362D01*
X188996628Y-72994362D02*
X189044247Y-72899124D01*
X189044247Y-72899124D02*
X189044247Y-72708648D01*
X189044247Y-72708648D02*
X188996628Y-72613410D01*
X188425200Y-73041981D02*
X188377580Y-72946743D01*
X188377580Y-72946743D02*
X188377580Y-72708648D01*
X188377580Y-72708648D02*
X188425200Y-72613410D01*
X188425200Y-72613410D02*
X188520438Y-72565791D01*
X188520438Y-72565791D02*
X188615676Y-72565791D01*
X188615676Y-72565791D02*
X188710914Y-72613410D01*
X188710914Y-72613410D02*
X188758533Y-72708648D01*
X188758533Y-72708648D02*
X188758533Y-72946743D01*
X188758533Y-72946743D02*
X188806152Y-73041981D01*
X189044247Y-73518172D02*
X188377580Y-73518172D01*
X188949009Y-73518172D02*
X188996628Y-73565791D01*
X188996628Y-73565791D02*
X189044247Y-73661029D01*
X189044247Y-73661029D02*
X189044247Y-73803886D01*
X189044247Y-73803886D02*
X188996628Y-73899124D01*
X188996628Y-73899124D02*
X188901390Y-73946743D01*
X188901390Y-73946743D02*
X188377580Y-73946743D01*
X189044247Y-74851505D02*
X188377580Y-74851505D01*
X189044247Y-74422934D02*
X188520438Y-74422934D01*
X188520438Y-74422934D02*
X188425200Y-74470553D01*
X188425200Y-74470553D02*
X188377580Y-74565791D01*
X188377580Y-74565791D02*
X188377580Y-74708648D01*
X188377580Y-74708648D02*
X188425200Y-74803886D01*
X188425200Y-74803886D02*
X188472819Y-74851505D01*
X188377580Y-75756267D02*
X188901390Y-75756267D01*
X188901390Y-75756267D02*
X188996628Y-75708648D01*
X188996628Y-75708648D02*
X189044247Y-75613410D01*
X189044247Y-75613410D02*
X189044247Y-75422934D01*
X189044247Y-75422934D02*
X188996628Y-75327696D01*
X188425200Y-75756267D02*
X188377580Y-75661029D01*
X188377580Y-75661029D02*
X188377580Y-75422934D01*
X188377580Y-75422934D02*
X188425200Y-75327696D01*
X188425200Y-75327696D02*
X188520438Y-75280077D01*
X188520438Y-75280077D02*
X188615676Y-75280077D01*
X188615676Y-75280077D02*
X188710914Y-75327696D01*
X188710914Y-75327696D02*
X188758533Y-75422934D01*
X188758533Y-75422934D02*
X188758533Y-75661029D01*
X188758533Y-75661029D02*
X188806152Y-75756267D01*
X188377580Y-76232458D02*
X189044247Y-76232458D01*
X188853771Y-76232458D02*
X188949009Y-76280077D01*
X188949009Y-76280077D02*
X188996628Y-76327696D01*
X188996628Y-76327696D02*
X189044247Y-76422934D01*
X189044247Y-76422934D02*
X189044247Y-76518172D01*
X189044247Y-76756268D02*
X188377580Y-76994363D01*
X189044247Y-77232458D02*
X188377580Y-76994363D01*
X188377580Y-76994363D02*
X188139485Y-76899125D01*
X188139485Y-76899125D02*
X188091866Y-76851506D01*
X188091866Y-76851506D02*
X188044247Y-76756268D01*
X188377580Y-78899125D02*
X188377580Y-78327697D01*
X188377580Y-78613411D02*
X189377580Y-78613411D01*
X189377580Y-78613411D02*
X189234723Y-78518173D01*
X189234723Y-78518173D02*
X189139485Y-78422935D01*
X189139485Y-78422935D02*
X189091866Y-78327697D01*
X188377580Y-79851506D02*
X188377580Y-79280078D01*
X188377580Y-79565792D02*
X189377580Y-79565792D01*
X189377580Y-79565792D02*
X189234723Y-79470554D01*
X189234723Y-79470554D02*
X189139485Y-79375316D01*
X189139485Y-79375316D02*
X189091866Y-79280078D01*
X188425200Y-80327697D02*
X188377580Y-80327697D01*
X188377580Y-80327697D02*
X188282342Y-80280078D01*
X188282342Y-80280078D02*
X188234723Y-80232459D01*
X189282342Y-81470554D02*
X189329961Y-81518173D01*
X189329961Y-81518173D02*
X189377580Y-81613411D01*
X189377580Y-81613411D02*
X189377580Y-81851506D01*
X189377580Y-81851506D02*
X189329961Y-81946744D01*
X189329961Y-81946744D02*
X189282342Y-81994363D01*
X189282342Y-81994363D02*
X189187104Y-82041982D01*
X189187104Y-82041982D02*
X189091866Y-82041982D01*
X189091866Y-82041982D02*
X188949009Y-81994363D01*
X188949009Y-81994363D02*
X188377580Y-81422935D01*
X188377580Y-81422935D02*
X188377580Y-82041982D01*
X189377580Y-82661030D02*
X189377580Y-82756268D01*
X189377580Y-82756268D02*
X189329961Y-82851506D01*
X189329961Y-82851506D02*
X189282342Y-82899125D01*
X189282342Y-82899125D02*
X189187104Y-82946744D01*
X189187104Y-82946744D02*
X188996628Y-82994363D01*
X188996628Y-82994363D02*
X188758533Y-82994363D01*
X188758533Y-82994363D02*
X188568057Y-82946744D01*
X188568057Y-82946744D02*
X188472819Y-82899125D01*
X188472819Y-82899125D02*
X188425200Y-82851506D01*
X188425200Y-82851506D02*
X188377580Y-82756268D01*
X188377580Y-82756268D02*
X188377580Y-82661030D01*
X188377580Y-82661030D02*
X188425200Y-82565792D01*
X188425200Y-82565792D02*
X188472819Y-82518173D01*
X188472819Y-82518173D02*
X188568057Y-82470554D01*
X188568057Y-82470554D02*
X188758533Y-82422935D01*
X188758533Y-82422935D02*
X188996628Y-82422935D01*
X188996628Y-82422935D02*
X189187104Y-82470554D01*
X189187104Y-82470554D02*
X189282342Y-82518173D01*
X189282342Y-82518173D02*
X189329961Y-82565792D01*
X189329961Y-82565792D02*
X189377580Y-82661030D01*
X189282342Y-83375316D02*
X189329961Y-83422935D01*
X189329961Y-83422935D02*
X189377580Y-83518173D01*
X189377580Y-83518173D02*
X189377580Y-83756268D01*
X189377580Y-83756268D02*
X189329961Y-83851506D01*
X189329961Y-83851506D02*
X189282342Y-83899125D01*
X189282342Y-83899125D02*
X189187104Y-83946744D01*
X189187104Y-83946744D02*
X189091866Y-83946744D01*
X189091866Y-83946744D02*
X188949009Y-83899125D01*
X188949009Y-83899125D02*
X188377580Y-83327697D01*
X188377580Y-83327697D02*
X188377580Y-83946744D01*
X189377580Y-84803887D02*
X189377580Y-84613411D01*
X189377580Y-84613411D02*
X189329961Y-84518173D01*
X189329961Y-84518173D02*
X189282342Y-84470554D01*
X189282342Y-84470554D02*
X189139485Y-84375316D01*
X189139485Y-84375316D02*
X188949009Y-84327697D01*
X188949009Y-84327697D02*
X188568057Y-84327697D01*
X188568057Y-84327697D02*
X188472819Y-84375316D01*
X188472819Y-84375316D02*
X188425200Y-84422935D01*
X188425200Y-84422935D02*
X188377580Y-84518173D01*
X188377580Y-84518173D02*
X188377580Y-84708649D01*
X188377580Y-84708649D02*
X188425200Y-84803887D01*
X188425200Y-84803887D02*
X188472819Y-84851506D01*
X188472819Y-84851506D02*
X188568057Y-84899125D01*
X188568057Y-84899125D02*
X188806152Y-84899125D01*
X188806152Y-84899125D02*
X188901390Y-84851506D01*
X188901390Y-84851506D02*
X188949009Y-84803887D01*
X188949009Y-84803887D02*
X188996628Y-84708649D01*
X188996628Y-84708649D02*
X188996628Y-84518173D01*
X188996628Y-84518173D02*
X188949009Y-84422935D01*
X188949009Y-84422935D02*
X188901390Y-84375316D01*
X188901390Y-84375316D02*
X188806152Y-84327697D01*
G36*
X175875732Y-100860450D02*
G01*
X175868951Y-100919016D01*
X175848072Y-100978053D01*
X175814840Y-101031759D01*
X175770525Y-101076543D01*
X175712064Y-101115142D01*
X175643091Y-101144931D01*
X175566225Y-101162914D01*
X175467908Y-101169539D01*
X175360931Y-101164158D01*
X175270132Y-101149084D01*
X175182698Y-101124066D01*
X175091530Y-101088450D01*
X175091530Y-100919434D01*
X175101116Y-100919434D01*
X175154694Y-100958354D01*
X175213911Y-100991114D01*
X175279352Y-101017742D01*
X175347479Y-101037432D01*
X175410580Y-101048690D01*
X175469312Y-101052302D01*
X175552092Y-101046279D01*
X175616017Y-101029973D01*
X175665012Y-101005225D01*
X175696441Y-100978866D01*
X175717884Y-100949633D01*
X175730664Y-100916925D01*
X175735048Y-100879623D01*
X175730798Y-100835696D01*
X175719391Y-100803365D01*
X175701892Y-100779788D01*
X175662897Y-100752624D01*
X175601142Y-100729841D01*
X175490134Y-100707309D01*
X175363433Y-100684717D01*
X175295565Y-100666273D01*
X175240835Y-100643423D01*
X175197183Y-100616776D01*
X175162909Y-100586592D01*
X175134899Y-100550100D01*
X175114667Y-100508492D01*
X175102098Y-100460796D01*
X175097697Y-100405730D01*
X175104472Y-100344545D01*
X175124263Y-100290203D01*
X175157384Y-100241067D01*
X175205591Y-100196170D01*
X175261231Y-100161392D01*
X175324508Y-100135928D01*
X175396747Y-100119996D01*
X175479570Y-100114410D01*
X175584303Y-100119729D01*
X175676247Y-100134865D01*
X175762701Y-100158379D01*
X175834760Y-100185362D01*
X175834760Y-100344975D01*
X175825174Y-100344975D01*
X175784552Y-100315592D01*
X175734174Y-100288462D01*
X175672461Y-100263886D01*
X175608758Y-100245941D01*
X175544339Y-100235225D01*
X175478838Y-100231646D01*
X175407624Y-100237235D01*
X175350339Y-100252677D01*
X175304265Y-100276709D01*
X175266792Y-100310675D01*
X175245530Y-100348762D01*
X175238381Y-100392725D01*
X175242402Y-100433897D01*
X175253546Y-100466559D01*
X175271170Y-100492559D01*
X175295517Y-100512896D01*
X175332642Y-100531590D01*
X175386636Y-100547941D01*
X175510956Y-100571205D01*
X175647548Y-100599232D01*
X175720781Y-100624388D01*
X175776641Y-100654928D01*
X175818335Y-100690212D01*
X175842511Y-100722090D01*
X175860357Y-100760204D01*
X175871689Y-100805793D01*
X175875732Y-100860450D01*
G37*
G36*
X176888241Y-101150000D02*
G01*
X176744077Y-101150000D01*
X176644364Y-100868632D01*
X176204422Y-100868632D01*
X176104710Y-101150000D01*
X175967384Y-101150000D01*
X176112645Y-100751395D01*
X176245394Y-100751395D01*
X176602660Y-100751395D01*
X176424363Y-100251980D01*
X176245394Y-100751395D01*
X176112645Y-100751395D01*
X176337657Y-100133949D01*
X176517969Y-100133949D01*
X176888241Y-101150000D01*
G37*
G36*
X177441420Y-100136374D02*
G01*
X177503794Y-100142192D01*
X177557819Y-100154798D01*
X177609673Y-100176386D01*
X177644622Y-100198669D01*
X177671330Y-100223839D01*
X177690945Y-100252041D01*
X177709581Y-100301404D01*
X177716224Y-100362622D01*
X177711898Y-100409826D01*
X177699499Y-100450630D01*
X177679344Y-100486270D01*
X177636879Y-100531923D01*
X177580975Y-100568824D01*
X177580975Y-100574258D01*
X177646551Y-100594336D01*
X177700060Y-100624375D01*
X177743518Y-100664323D01*
X177776028Y-100713279D01*
X177795988Y-100770642D01*
X177802991Y-100838651D01*
X177799622Y-100888298D01*
X177789929Y-100932453D01*
X177774293Y-100971946D01*
X177740401Y-101024915D01*
X177697112Y-101067079D01*
X177636733Y-101105589D01*
X177571083Y-101131010D01*
X177497698Y-101144740D01*
X177396571Y-101150000D01*
X177035886Y-101150000D01*
X177035886Y-101032763D01*
X177171135Y-101032763D01*
X177350104Y-101032763D01*
X177434892Y-101030244D01*
X177495551Y-101023726D01*
X177548803Y-101010321D01*
X177588485Y-100990570D01*
X177622295Y-100961839D01*
X177644478Y-100930914D01*
X177657411Y-100894400D01*
X177662247Y-100844452D01*
X177657123Y-100787759D01*
X177643806Y-100748647D01*
X177619177Y-100717003D01*
X177576884Y-100688319D01*
X177541840Y-100674867D01*
X177497260Y-100666582D01*
X177383565Y-100661514D01*
X177171135Y-100661514D01*
X177171135Y-101032763D01*
X177035886Y-101032763D01*
X177035886Y-100544277D01*
X177171135Y-100544277D01*
X177346013Y-100544277D01*
X177406278Y-100542442D01*
X177447069Y-100537805D01*
X177483318Y-100527833D01*
X177516800Y-100510877D01*
X177544456Y-100487165D01*
X177562229Y-100458060D01*
X177572008Y-100423861D01*
X177575540Y-100381367D01*
X177572238Y-100346372D01*
X177563206Y-100319330D01*
X177547461Y-100296802D01*
X177523639Y-100278480D01*
X177489170Y-100263867D01*
X177445725Y-100255643D01*
X177332336Y-100251186D01*
X177171135Y-100251186D01*
X177171135Y-100544277D01*
X177035886Y-100544277D01*
X177035886Y-100133949D01*
X177337098Y-100133949D01*
X177441420Y-100136374D01*
G37*
G36*
X178715239Y-100133949D02*
G01*
X178357301Y-100704439D01*
X178357301Y-101150000D01*
X178222051Y-101150000D01*
X178222051Y-100718728D01*
X177862709Y-100133949D01*
X178012308Y-100133949D01*
X178290378Y-100588424D01*
X178571135Y-100133949D01*
X178715239Y-100133949D01*
G37*
G36*
X179229269Y-100137253D02*
G01*
X179294521Y-100145917D01*
X179353455Y-100162786D01*
X179405225Y-100188660D01*
X179454811Y-100228406D01*
X179491625Y-100276587D01*
X179508258Y-100313193D01*
X179518892Y-100357444D01*
X179522705Y-100410982D01*
X179516145Y-100482555D01*
X179497489Y-100543301D01*
X179467384Y-100595324D01*
X179426635Y-100640032D01*
X179376325Y-100677242D01*
X179315038Y-100707126D01*
X179697583Y-101150000D01*
X179522034Y-101150000D01*
X179181803Y-100747487D01*
X178991233Y-100747487D01*
X178991233Y-101150000D01*
X178855983Y-101150000D01*
X178855983Y-100630251D01*
X178991233Y-100630251D01*
X179127826Y-100630251D01*
X179189941Y-100627272D01*
X179239872Y-100619138D01*
X179284524Y-100602959D01*
X179321205Y-100577616D01*
X179348055Y-100546961D01*
X179366573Y-100512526D01*
X179377256Y-100472989D01*
X179381289Y-100419164D01*
X179377287Y-100377672D01*
X179365901Y-100342594D01*
X179345970Y-100312302D01*
X179315038Y-100286235D01*
X179283590Y-100269899D01*
X179245368Y-100258941D01*
X179203275Y-100253274D01*
X179150418Y-100251186D01*
X178991233Y-100251186D01*
X178991233Y-100630251D01*
X178855983Y-100630251D01*
X178855983Y-100133949D01*
X179140832Y-100133949D01*
X179229269Y-100137253D01*
G37*
G36*
X181122435Y-101150000D02*
G01*
X180978271Y-101150000D01*
X180878558Y-100868632D01*
X180438616Y-100868632D01*
X180338904Y-101150000D01*
X180201578Y-101150000D01*
X180346839Y-100751395D01*
X180479588Y-100751395D01*
X180836854Y-100751395D01*
X180658557Y-100251980D01*
X180479588Y-100751395D01*
X180346839Y-100751395D01*
X180571851Y-100133949D01*
X180752163Y-100133949D01*
X181122435Y-101150000D01*
G37*
G36*
X181920376Y-101150000D02*
G01*
X181276919Y-101150000D01*
X181276919Y-100133949D01*
X181412168Y-100133949D01*
X181412168Y-101028855D01*
X181920376Y-101028855D01*
X181920376Y-101150000D01*
G37*
G36*
X182720821Y-100133949D02*
G01*
X182362883Y-100704439D01*
X182362883Y-101150000D01*
X182227634Y-101150000D01*
X182227634Y-100718728D01*
X181868292Y-100133949D01*
X182017890Y-100133949D01*
X182295961Y-100588424D01*
X182576718Y-100133949D01*
X182720821Y-100133949D01*
G37*
G36*
X183712630Y-101150000D02*
G01*
X183577381Y-101150000D01*
X183577381Y-100274206D01*
X183294548Y-100868632D01*
X183213948Y-100868632D01*
X182933190Y-100274206D01*
X182933190Y-101150000D01*
X182806856Y-101150000D01*
X182806856Y-100133949D01*
X182991259Y-100133949D01*
X183262491Y-100698394D01*
X183524808Y-100133949D01*
X183712630Y-100133949D01*
X183712630Y-101150000D01*
G37*
G36*
X184391595Y-100136374D02*
G01*
X184453968Y-100142192D01*
X184507993Y-100154798D01*
X184559848Y-100176386D01*
X184594797Y-100198669D01*
X184621504Y-100223839D01*
X184641120Y-100252041D01*
X184659756Y-100301404D01*
X184666399Y-100362622D01*
X184662072Y-100409826D01*
X184649673Y-100450630D01*
X184629518Y-100486270D01*
X184587053Y-100531923D01*
X184531149Y-100568824D01*
X184531149Y-100574258D01*
X184596725Y-100594336D01*
X184650234Y-100624375D01*
X184693693Y-100664323D01*
X184726202Y-100713279D01*
X184746163Y-100770642D01*
X184753166Y-100838651D01*
X184749797Y-100888298D01*
X184740104Y-100932453D01*
X184724467Y-100971946D01*
X184690576Y-101024915D01*
X184647287Y-101067079D01*
X184586908Y-101105589D01*
X184521257Y-101131010D01*
X184447873Y-101144740D01*
X184346746Y-101150000D01*
X183986060Y-101150000D01*
X183986060Y-101032763D01*
X184121310Y-101032763D01*
X184300279Y-101032763D01*
X184385066Y-101030244D01*
X184445725Y-101023726D01*
X184498977Y-101010321D01*
X184538660Y-100990570D01*
X184572470Y-100961839D01*
X184594652Y-100930914D01*
X184607586Y-100894400D01*
X184612421Y-100844452D01*
X184607298Y-100787759D01*
X184593981Y-100748647D01*
X184569351Y-100717003D01*
X184527058Y-100688319D01*
X184492015Y-100674867D01*
X184447435Y-100666582D01*
X184333740Y-100661514D01*
X184121310Y-100661514D01*
X184121310Y-101032763D01*
X183986060Y-101032763D01*
X183986060Y-100544277D01*
X184121310Y-100544277D01*
X184296188Y-100544277D01*
X184356453Y-100542442D01*
X184397243Y-100537805D01*
X184433492Y-100527833D01*
X184466974Y-100510877D01*
X184494631Y-100487165D01*
X184512404Y-100458060D01*
X184522183Y-100423861D01*
X184525715Y-100381367D01*
X184522413Y-100346372D01*
X184513381Y-100319330D01*
X184497636Y-100296802D01*
X184473813Y-100278480D01*
X184439344Y-100263867D01*
X184395900Y-100255643D01*
X184282510Y-100251186D01*
X184121310Y-100251186D01*
X184121310Y-100544277D01*
X183986060Y-100544277D01*
X183986060Y-100133949D01*
X184287273Y-100133949D01*
X184391595Y-100136374D01*
G37*
G36*
X185615526Y-101150000D02*
G01*
X184945446Y-101150000D01*
X184945446Y-100133949D01*
X185615526Y-100133949D01*
X185615526Y-100255094D01*
X185080696Y-100255094D01*
X185080696Y-100532554D01*
X185615526Y-100532554D01*
X185615526Y-100653698D01*
X185080696Y-100653698D01*
X185080696Y-101028855D01*
X185615526Y-101028855D01*
X185615526Y-101150000D01*
G37*
G36*
X186648246Y-101150000D02*
G01*
X186472697Y-101150000D01*
X186070307Y-100697601D01*
X185969251Y-100805434D01*
X185969251Y-101150000D01*
X185833941Y-101150000D01*
X185833941Y-100133949D01*
X185969251Y-100133949D01*
X185969251Y-100664139D01*
X186463110Y-100133949D01*
X186627058Y-100133949D01*
X186172766Y-100611627D01*
X186648246Y-101150000D01*
G37*
G36*
X187279004Y-100118589D02*
G01*
X187344153Y-100130659D01*
X187403201Y-100150130D01*
X187458863Y-100177601D01*
X187507965Y-100211445D01*
X187551151Y-100251857D01*
X187588716Y-100299651D01*
X187620495Y-100354903D01*
X187646406Y-100418553D01*
X187664378Y-100485089D01*
X187675636Y-100559347D01*
X187679562Y-100642341D01*
X187675564Y-100725303D01*
X187664086Y-100799688D01*
X187645734Y-100866495D01*
X187619413Y-100930401D01*
X187587835Y-100985011D01*
X187551151Y-101031420D01*
X187506581Y-101073582D01*
X187457231Y-101107930D01*
X187402590Y-101134856D01*
X187344462Y-101153696D01*
X187279549Y-101165447D01*
X187206830Y-101169539D01*
X187136038Y-101165437D01*
X187071293Y-101153524D01*
X187011802Y-101134185D01*
X186955813Y-101106787D01*
X186906282Y-101072612D01*
X186862569Y-101031420D01*
X186825389Y-100984106D01*
X186793811Y-100929323D01*
X186767925Y-100866128D01*
X186750017Y-100800036D01*
X186738764Y-100725802D01*
X186734830Y-100642341D01*
X186875514Y-100642341D01*
X186882068Y-100742817D01*
X186900226Y-100825034D01*
X186928336Y-100892162D01*
X186965640Y-100946789D01*
X187014287Y-100992734D01*
X187069791Y-101025306D01*
X187133520Y-101045317D01*
X187207501Y-101052302D01*
X187281486Y-101045312D01*
X187345146Y-101025293D01*
X187400524Y-100992723D01*
X187448996Y-100946789D01*
X187486163Y-100892182D01*
X187514180Y-100825062D01*
X187532282Y-100742839D01*
X187538817Y-100642341D01*
X187532389Y-100542946D01*
X187514533Y-100461085D01*
X187486819Y-100393773D01*
X187449973Y-100338564D01*
X187401917Y-100292087D01*
X187346572Y-100259090D01*
X187282487Y-100238764D01*
X187207501Y-100231646D01*
X187131790Y-100238792D01*
X187067330Y-100259163D01*
X187011896Y-100292165D01*
X186963991Y-100338564D01*
X186927310Y-100393749D01*
X186899708Y-100461052D01*
X186881919Y-100542921D01*
X186875514Y-100642341D01*
X186734830Y-100642341D01*
X186738703Y-100560245D01*
X186749828Y-100486517D01*
X186767620Y-100420202D01*
X186793313Y-100356780D01*
X186825194Y-100300935D01*
X186863241Y-100251857D01*
X186906149Y-100211217D01*
X186955655Y-100177262D01*
X187012534Y-100149825D01*
X187072884Y-100130366D01*
X187137428Y-100118474D01*
X187206830Y-100114410D01*
X187279004Y-100118589D01*
G37*
G36*
X188689078Y-100133949D02*
G01*
X188318806Y-101150000D01*
X188138494Y-101150000D01*
X187768222Y-100133949D01*
X187913058Y-100133949D01*
X188232039Y-101027878D01*
X188551081Y-100133949D01*
X188689078Y-100133949D01*
G37*
G36*
X175495263Y-102830000D02*
G01*
X175093606Y-102830000D01*
X175093606Y-102724487D01*
X175226779Y-102724487D01*
X175226779Y-101919462D01*
X175093606Y-101919462D01*
X175093606Y-101813949D01*
X175495263Y-101813949D01*
X175495263Y-101919462D01*
X175362028Y-101919462D01*
X175362028Y-102724487D01*
X175495263Y-102724487D01*
X175495263Y-102830000D01*
G37*
G36*
X176631542Y-102830000D02*
G01*
X176496292Y-102830000D01*
X176496292Y-101954206D01*
X176213459Y-102548632D01*
X176132859Y-102548632D01*
X175852102Y-101954206D01*
X175852102Y-102830000D01*
X175725767Y-102830000D01*
X175725767Y-101813949D01*
X175910170Y-101813949D01*
X176181402Y-102378394D01*
X176443719Y-101813949D01*
X176631542Y-101813949D01*
X176631542Y-102830000D01*
G37*
G36*
X177706943Y-102830000D02*
G01*
X177562779Y-102830000D01*
X177463066Y-102548632D01*
X177023124Y-102548632D01*
X176923412Y-102830000D01*
X176786086Y-102830000D01*
X176931347Y-102431395D01*
X177064096Y-102431395D01*
X177421362Y-102431395D01*
X177243065Y-101931980D01*
X177064096Y-102431395D01*
X176931347Y-102431395D01*
X177156359Y-101813949D01*
X177336671Y-101813949D01*
X177706943Y-102830000D01*
G37*
G36*
X178709804Y-102754590D02*
G01*
X178623935Y-102789870D01*
X178527721Y-102821207D01*
X178429402Y-102842642D01*
X178336845Y-102849539D01*
X178258108Y-102845730D01*
X178185700Y-102834664D01*
X178118920Y-102816749D01*
X178055209Y-102790788D01*
X177999258Y-102758028D01*
X177950209Y-102718442D01*
X177907436Y-102671321D01*
X177871246Y-102616440D01*
X177841582Y-102552845D01*
X177820975Y-102485520D01*
X177807945Y-102408484D01*
X177803358Y-102320265D01*
X177809676Y-102222108D01*
X177827710Y-102136193D01*
X177856514Y-102060714D01*
X177895760Y-101994177D01*
X177945751Y-101935460D01*
X178004887Y-101886134D01*
X178072203Y-101847277D01*
X178148879Y-101818669D01*
X178236472Y-101800713D01*
X178336845Y-101794410D01*
X178423816Y-101799500D01*
X178514105Y-101815109D01*
X178605299Y-101841949D01*
X178709132Y-101885207D01*
X178709132Y-102044515D01*
X178696859Y-102044515D01*
X178635371Y-102002688D01*
X178556114Y-101959457D01*
X178507038Y-101941012D01*
X178449197Y-101925263D01*
X178387284Y-101915242D01*
X178313581Y-101911646D01*
X178245392Y-101916412D01*
X178185435Y-101930064D01*
X178132429Y-101952005D01*
X178085344Y-101982153D01*
X178043449Y-102020945D01*
X178001325Y-102078088D01*
X177970423Y-102145103D01*
X177950942Y-102223882D01*
X177944042Y-102316845D01*
X177948771Y-102396892D01*
X177962172Y-102466098D01*
X177983372Y-102526020D01*
X178011926Y-102577977D01*
X178047845Y-102623004D01*
X178091347Y-102661577D01*
X178140445Y-102691714D01*
X178195933Y-102713742D01*
X178258900Y-102727493D01*
X178330678Y-102732302D01*
X178396115Y-102729106D01*
X178461531Y-102719480D01*
X178524413Y-102704246D01*
X178575959Y-102686263D01*
X178575959Y-102439211D01*
X178303384Y-102439211D01*
X178303384Y-102318066D01*
X178709804Y-102318066D01*
X178709804Y-102754590D01*
G37*
G36*
X179305451Y-102830000D02*
G01*
X178903794Y-102830000D01*
X178903794Y-102724487D01*
X179036967Y-102724487D01*
X179036967Y-101919462D01*
X178903794Y-101919462D01*
X178903794Y-101813949D01*
X179305451Y-101813949D01*
X179305451Y-101919462D01*
X179172217Y-101919462D01*
X179172217Y-102724487D01*
X179305451Y-102724487D01*
X179305451Y-102830000D01*
G37*
G36*
X180261418Y-101935094D02*
G01*
X179897984Y-101935094D01*
X179897984Y-102830000D01*
X179762735Y-102830000D01*
X179762735Y-101935094D01*
X179399302Y-101935094D01*
X179399302Y-101813949D01*
X180261418Y-101813949D01*
X180261418Y-101935094D01*
G37*
G36*
X180771907Y-101817253D02*
G01*
X180837159Y-101825917D01*
X180896093Y-101842786D01*
X180947862Y-101868660D01*
X180997449Y-101908406D01*
X181034263Y-101956587D01*
X181050896Y-101993193D01*
X181061530Y-102037444D01*
X181065343Y-102090982D01*
X181058783Y-102162555D01*
X181040127Y-102223301D01*
X181010022Y-102275324D01*
X180969273Y-102320032D01*
X180918963Y-102357242D01*
X180857676Y-102387126D01*
X181240221Y-102830000D01*
X181064672Y-102830000D01*
X180724441Y-102427487D01*
X180533871Y-102427487D01*
X180533871Y-102830000D01*
X180398621Y-102830000D01*
X180398621Y-102310251D01*
X180533871Y-102310251D01*
X180670464Y-102310251D01*
X180732578Y-102307272D01*
X180782510Y-102299138D01*
X180827161Y-102282959D01*
X180863843Y-102257616D01*
X180890692Y-102226961D01*
X180909211Y-102192526D01*
X180919894Y-102152989D01*
X180923927Y-102099164D01*
X180919924Y-102057672D01*
X180908539Y-102022594D01*
X180888608Y-101992302D01*
X180857676Y-101966235D01*
X180826228Y-101949899D01*
X180788005Y-101938941D01*
X180745913Y-101933274D01*
X180693056Y-101931186D01*
X180533871Y-101931186D01*
X180533871Y-102310251D01*
X180398621Y-102310251D01*
X180398621Y-101813949D01*
X180683469Y-101813949D01*
X180771907Y-101817253D01*
G37*
G36*
X181857790Y-101798589D02*
G01*
X181922939Y-101810659D01*
X181981987Y-101830130D01*
X182037649Y-101857601D01*
X182086751Y-101891445D01*
X182129937Y-101931857D01*
X182167502Y-101979651D01*
X182199280Y-102034903D01*
X182225191Y-102098553D01*
X182243164Y-102165089D01*
X182254422Y-102239347D01*
X182258347Y-102322341D01*
X182254350Y-102405303D01*
X182242872Y-102479688D01*
X182224520Y-102546495D01*
X182198199Y-102610401D01*
X182166620Y-102665011D01*
X182129937Y-102711420D01*
X182085367Y-102753582D01*
X182036017Y-102787930D01*
X181981376Y-102814856D01*
X181923248Y-102833696D01*
X181858334Y-102845447D01*
X181785615Y-102849539D01*
X181714824Y-102845437D01*
X181650079Y-102833524D01*
X181590587Y-102814185D01*
X181534599Y-102786787D01*
X181485068Y-102752612D01*
X181441355Y-102711420D01*
X181404175Y-102664106D01*
X181372596Y-102609323D01*
X181346711Y-102546128D01*
X181328803Y-102480036D01*
X181317550Y-102405802D01*
X181313616Y-102322341D01*
X181454300Y-102322341D01*
X181460854Y-102422817D01*
X181479012Y-102505034D01*
X181507122Y-102572162D01*
X181544426Y-102626789D01*
X181593073Y-102672734D01*
X181648577Y-102705306D01*
X181712306Y-102725317D01*
X181786287Y-102732302D01*
X181860271Y-102725312D01*
X181923932Y-102705293D01*
X181979309Y-102672723D01*
X182027782Y-102626789D01*
X182064948Y-102572182D01*
X182092965Y-102505062D01*
X182111067Y-102422839D01*
X182117602Y-102322341D01*
X182111175Y-102222946D01*
X182093319Y-102141085D01*
X182065605Y-102073773D01*
X182028759Y-102018564D01*
X181980703Y-101972087D01*
X181925357Y-101939090D01*
X181861273Y-101918764D01*
X181786287Y-101911646D01*
X181710576Y-101918792D01*
X181646116Y-101939163D01*
X181590681Y-101972165D01*
X181542777Y-102018564D01*
X181506096Y-102073749D01*
X181478493Y-102141052D01*
X181460705Y-102222921D01*
X181454300Y-102322341D01*
X181313616Y-102322341D01*
X181317488Y-102240245D01*
X181328614Y-102166517D01*
X181346406Y-102100202D01*
X181372098Y-102036780D01*
X181403980Y-101980935D01*
X181442027Y-101931857D01*
X181484935Y-101891217D01*
X181534441Y-101857262D01*
X181591320Y-101829825D01*
X181651670Y-101810366D01*
X181716213Y-101798474D01*
X181785615Y-101794410D01*
X181857790Y-101798589D01*
G37*
G36*
X183248752Y-102830000D02*
G01*
X183081385Y-102830000D01*
X182599066Y-101921111D01*
X182599066Y-102830000D01*
X182472732Y-102830000D01*
X182472732Y-101813949D01*
X182682414Y-101813949D01*
X183122356Y-102643703D01*
X183122356Y-101813949D01*
X183248752Y-101813949D01*
X183248752Y-102830000D01*
G37*
G36*
X183877677Y-102830000D02*
G01*
X183476020Y-102830000D01*
X183476020Y-102724487D01*
X183609193Y-102724487D01*
X183609193Y-101919462D01*
X183476020Y-101919462D01*
X183476020Y-101813949D01*
X183877677Y-101813949D01*
X183877677Y-101919462D01*
X183744443Y-101919462D01*
X183744443Y-102724487D01*
X183877677Y-102724487D01*
X183877677Y-102830000D01*
G37*
G36*
X184893728Y-102757520D02*
G01*
X184825767Y-102788234D01*
X184746205Y-102818215D01*
X184655652Y-102840319D01*
X184605496Y-102847133D01*
X184548063Y-102849539D01*
X184474800Y-102845910D01*
X184407981Y-102835407D01*
X184346868Y-102818459D01*
X184288919Y-102793666D01*
X184236651Y-102761279D01*
X184189453Y-102721006D01*
X184149757Y-102674918D01*
X184115573Y-102620245D01*
X184086994Y-102555837D01*
X184067093Y-102488064D01*
X184054529Y-102410911D01*
X184050113Y-102323012D01*
X184054303Y-102239664D01*
X184066336Y-102165009D01*
X184085589Y-102098004D01*
X184113310Y-102034290D01*
X184147478Y-101978757D01*
X184188110Y-101930514D01*
X184234005Y-101890046D01*
X184286021Y-101856350D01*
X184344853Y-101829275D01*
X184407018Y-101810223D01*
X184474736Y-101798463D01*
X184548796Y-101794410D01*
X184630418Y-101799341D01*
X184712377Y-101814255D01*
X184795144Y-101840270D01*
X184893728Y-101883925D01*
X184893728Y-102044515D01*
X184883469Y-102044515D01*
X184825576Y-102001013D01*
X184770137Y-101967654D01*
X184716774Y-101943337D01*
X184660924Y-101925859D01*
X184602128Y-101915249D01*
X184539881Y-101911646D01*
X184465270Y-101918103D01*
X184400846Y-101936559D01*
X184342843Y-101968037D01*
X184290509Y-102013984D01*
X184262110Y-102050026D01*
X184237575Y-102092804D01*
X184217053Y-102143250D01*
X184197730Y-102224908D01*
X184190797Y-102323684D01*
X184194326Y-102394752D01*
X184204258Y-102455699D01*
X184219801Y-102507904D01*
X184254055Y-102579481D01*
X184294661Y-102633384D01*
X184346607Y-102677398D01*
X184406341Y-102708122D01*
X184471678Y-102726200D01*
X184541224Y-102732302D01*
X184605714Y-102728525D01*
X184666554Y-102717403D01*
X184724284Y-102699085D01*
X184779324Y-102673622D01*
X184832519Y-102640584D01*
X184884141Y-102599434D01*
X184893728Y-102599434D01*
X184893728Y-102757520D01*
G37*
G36*
X185824232Y-102540450D02*
G01*
X185817450Y-102599016D01*
X185796571Y-102658053D01*
X185763339Y-102711759D01*
X185719024Y-102756543D01*
X185660564Y-102795142D01*
X185591591Y-102824931D01*
X185514725Y-102842914D01*
X185416407Y-102849539D01*
X185309431Y-102844158D01*
X185218632Y-102829084D01*
X185131197Y-102804066D01*
X185040029Y-102768450D01*
X185040029Y-102599434D01*
X185049616Y-102599434D01*
X185103194Y-102638354D01*
X185162411Y-102671114D01*
X185227852Y-102697742D01*
X185295978Y-102717432D01*
X185359080Y-102728690D01*
X185417812Y-102732302D01*
X185500592Y-102726279D01*
X185564516Y-102709973D01*
X185613511Y-102685225D01*
X185644941Y-102658866D01*
X185666384Y-102629633D01*
X185679164Y-102596925D01*
X185683548Y-102559623D01*
X185679298Y-102515696D01*
X185667891Y-102483365D01*
X185650392Y-102459788D01*
X185611396Y-102432624D01*
X185549642Y-102409841D01*
X185438633Y-102387309D01*
X185311933Y-102364717D01*
X185244065Y-102346273D01*
X185189335Y-102323423D01*
X185145683Y-102296776D01*
X185111409Y-102266592D01*
X185083399Y-102230100D01*
X185063167Y-102188492D01*
X185050598Y-102140796D01*
X185046196Y-102085730D01*
X185052972Y-102024545D01*
X185072763Y-101970203D01*
X185105884Y-101921067D01*
X185154091Y-101876170D01*
X185209731Y-101841392D01*
X185273008Y-101815928D01*
X185345247Y-101799996D01*
X185428070Y-101794410D01*
X185532803Y-101799729D01*
X185624747Y-101814865D01*
X185711201Y-101838379D01*
X185783260Y-101865362D01*
X185783260Y-102024975D01*
X185773674Y-102024975D01*
X185733051Y-101995592D01*
X185682674Y-101968462D01*
X185620961Y-101943886D01*
X185557257Y-101925941D01*
X185492838Y-101915225D01*
X185427337Y-101911646D01*
X185356124Y-101917235D01*
X185298838Y-101932677D01*
X185252765Y-101956709D01*
X185215291Y-101990675D01*
X185194029Y-102028762D01*
X185186880Y-102072725D01*
X185190901Y-102113897D01*
X185202046Y-102146559D01*
X185219670Y-102172559D01*
X185244017Y-102192896D01*
X185281142Y-102211590D01*
X185335136Y-102227941D01*
X185459455Y-102251205D01*
X185596048Y-102279232D01*
X185669281Y-102304388D01*
X185725141Y-102334928D01*
X185766835Y-102370212D01*
X185791011Y-102402090D01*
X185808856Y-102440204D01*
X185820189Y-102485793D01*
X185824232Y-102540450D01*
G37*
D12*
X175623569Y-78888094D02*
X174623569Y-78888094D01*
X174623569Y-78888094D02*
X174623569Y-78649999D01*
X174623569Y-78649999D02*
X174671188Y-78507142D01*
X174671188Y-78507142D02*
X174766426Y-78411904D01*
X174766426Y-78411904D02*
X174861664Y-78364285D01*
X174861664Y-78364285D02*
X175052140Y-78316666D01*
X175052140Y-78316666D02*
X175194997Y-78316666D01*
X175194997Y-78316666D02*
X175385473Y-78364285D01*
X175385473Y-78364285D02*
X175480711Y-78411904D01*
X175480711Y-78411904D02*
X175575950Y-78507142D01*
X175575950Y-78507142D02*
X175623569Y-78649999D01*
X175623569Y-78649999D02*
X175623569Y-78888094D01*
X174623569Y-77983332D02*
X174623569Y-77316666D01*
X174623569Y-77316666D02*
X175623569Y-77745237D01*
X175254819Y-74451904D02*
X174254819Y-74451904D01*
X175254819Y-73880476D02*
X174683390Y-74309047D01*
X174254819Y-73880476D02*
X174826247Y-74451904D01*
X122422917Y-87783200D02*
X122565774Y-87830819D01*
X122565774Y-87830819D02*
X122803869Y-87830819D01*
X122803869Y-87830819D02*
X122899107Y-87783200D01*
X122899107Y-87783200D02*
X122946726Y-87735580D01*
X122946726Y-87735580D02*
X122994345Y-87640342D01*
X122994345Y-87640342D02*
X122994345Y-87545104D01*
X122994345Y-87545104D02*
X122946726Y-87449866D01*
X122946726Y-87449866D02*
X122899107Y-87402247D01*
X122899107Y-87402247D02*
X122803869Y-87354628D01*
X122803869Y-87354628D02*
X122613393Y-87307009D01*
X122613393Y-87307009D02*
X122518155Y-87259390D01*
X122518155Y-87259390D02*
X122470536Y-87211771D01*
X122470536Y-87211771D02*
X122422917Y-87116533D01*
X122422917Y-87116533D02*
X122422917Y-87021295D01*
X122422917Y-87021295D02*
X122470536Y-86926057D01*
X122470536Y-86926057D02*
X122518155Y-86878438D01*
X122518155Y-86878438D02*
X122613393Y-86830819D01*
X122613393Y-86830819D02*
X122851488Y-86830819D01*
X122851488Y-86830819D02*
X122994345Y-86878438D01*
X123327679Y-86830819D02*
X123565774Y-87830819D01*
X123565774Y-87830819D02*
X123756250Y-87116533D01*
X123756250Y-87116533D02*
X123946726Y-87830819D01*
X123946726Y-87830819D02*
X124184822Y-86830819D01*
X124994345Y-87164152D02*
X124994345Y-87830819D01*
X124756250Y-86783200D02*
X124518155Y-87497485D01*
X124518155Y-87497485D02*
X125137202Y-87497485D01*
X103372917Y-68733200D02*
X103515774Y-68780819D01*
X103515774Y-68780819D02*
X103753869Y-68780819D01*
X103753869Y-68780819D02*
X103849107Y-68733200D01*
X103849107Y-68733200D02*
X103896726Y-68685580D01*
X103896726Y-68685580D02*
X103944345Y-68590342D01*
X103944345Y-68590342D02*
X103944345Y-68495104D01*
X103944345Y-68495104D02*
X103896726Y-68399866D01*
X103896726Y-68399866D02*
X103849107Y-68352247D01*
X103849107Y-68352247D02*
X103753869Y-68304628D01*
X103753869Y-68304628D02*
X103563393Y-68257009D01*
X103563393Y-68257009D02*
X103468155Y-68209390D01*
X103468155Y-68209390D02*
X103420536Y-68161771D01*
X103420536Y-68161771D02*
X103372917Y-68066533D01*
X103372917Y-68066533D02*
X103372917Y-67971295D01*
X103372917Y-67971295D02*
X103420536Y-67876057D01*
X103420536Y-67876057D02*
X103468155Y-67828438D01*
X103468155Y-67828438D02*
X103563393Y-67780819D01*
X103563393Y-67780819D02*
X103801488Y-67780819D01*
X103801488Y-67780819D02*
X103944345Y-67828438D01*
X104277679Y-67780819D02*
X104515774Y-68780819D01*
X104515774Y-68780819D02*
X104706250Y-68066533D01*
X104706250Y-68066533D02*
X104896726Y-68780819D01*
X104896726Y-68780819D02*
X105134822Y-67780819D01*
X106039583Y-68780819D02*
X105468155Y-68780819D01*
X105753869Y-68780819D02*
X105753869Y-67780819D01*
X105753869Y-67780819D02*
X105658631Y-67923676D01*
X105658631Y-67923676D02*
X105563393Y-68018914D01*
X105563393Y-68018914D02*
X105468155Y-68066533D01*
X167574819Y-78738094D02*
X166574819Y-78738094D01*
X166574819Y-78738094D02*
X166574819Y-78499999D01*
X166574819Y-78499999D02*
X166622438Y-78357142D01*
X166622438Y-78357142D02*
X166717676Y-78261904D01*
X166717676Y-78261904D02*
X166812914Y-78214285D01*
X166812914Y-78214285D02*
X167003390Y-78166666D01*
X167003390Y-78166666D02*
X167146247Y-78166666D01*
X167146247Y-78166666D02*
X167336723Y-78214285D01*
X167336723Y-78214285D02*
X167431961Y-78261904D01*
X167431961Y-78261904D02*
X167527200Y-78357142D01*
X167527200Y-78357142D02*
X167574819Y-78499999D01*
X167574819Y-78499999D02*
X167574819Y-78738094D01*
X166574819Y-77261904D02*
X166574819Y-77738094D01*
X166574819Y-77738094D02*
X167051009Y-77785713D01*
X167051009Y-77785713D02*
X167003390Y-77738094D01*
X167003390Y-77738094D02*
X166955771Y-77642856D01*
X166955771Y-77642856D02*
X166955771Y-77404761D01*
X166955771Y-77404761D02*
X167003390Y-77309523D01*
X167003390Y-77309523D02*
X167051009Y-77261904D01*
X167051009Y-77261904D02*
X167146247Y-77214285D01*
X167146247Y-77214285D02*
X167384342Y-77214285D01*
X167384342Y-77214285D02*
X167479580Y-77261904D01*
X167479580Y-77261904D02*
X167527200Y-77309523D01*
X167527200Y-77309523D02*
X167574819Y-77404761D01*
X167574819Y-77404761D02*
X167574819Y-77642856D01*
X167574819Y-77642856D02*
X167527200Y-77738094D01*
X167527200Y-77738094D02*
X167479580Y-77785713D01*
X167254819Y-74451904D02*
X166254819Y-74451904D01*
X167254819Y-73880476D02*
X166683390Y-74309047D01*
X166254819Y-73880476D02*
X166826247Y-74451904D01*
D13*
D12*
X163454819Y-78988094D02*
X162454819Y-78988094D01*
X162454819Y-78988094D02*
X162454819Y-78749999D01*
X162454819Y-78749999D02*
X162502438Y-78607142D01*
X162502438Y-78607142D02*
X162597676Y-78511904D01*
X162597676Y-78511904D02*
X162692914Y-78464285D01*
X162692914Y-78464285D02*
X162883390Y-78416666D01*
X162883390Y-78416666D02*
X163026247Y-78416666D01*
X163026247Y-78416666D02*
X163216723Y-78464285D01*
X163216723Y-78464285D02*
X163311961Y-78511904D01*
X163311961Y-78511904D02*
X163407200Y-78607142D01*
X163407200Y-78607142D02*
X163454819Y-78749999D01*
X163454819Y-78749999D02*
X163454819Y-78988094D01*
X162788152Y-77559523D02*
X163454819Y-77559523D01*
X162407200Y-77797618D02*
X163121485Y-78035713D01*
X163121485Y-78035713D02*
X163121485Y-77416666D01*
X163254819Y-74451904D02*
X162254819Y-74451904D01*
X163254819Y-73880476D02*
X162683390Y-74309047D01*
X162254819Y-73880476D02*
X162826247Y-74451904D01*
X179574819Y-78738094D02*
X178574819Y-78738094D01*
X178574819Y-78738094D02*
X178574819Y-78499999D01*
X178574819Y-78499999D02*
X178622438Y-78357142D01*
X178622438Y-78357142D02*
X178717676Y-78261904D01*
X178717676Y-78261904D02*
X178812914Y-78214285D01*
X178812914Y-78214285D02*
X179003390Y-78166666D01*
X179003390Y-78166666D02*
X179146247Y-78166666D01*
X179146247Y-78166666D02*
X179336723Y-78214285D01*
X179336723Y-78214285D02*
X179431961Y-78261904D01*
X179431961Y-78261904D02*
X179527200Y-78357142D01*
X179527200Y-78357142D02*
X179574819Y-78499999D01*
X179574819Y-78499999D02*
X179574819Y-78738094D01*
X179003390Y-77595237D02*
X178955771Y-77690475D01*
X178955771Y-77690475D02*
X178908152Y-77738094D01*
X178908152Y-77738094D02*
X178812914Y-77785713D01*
X178812914Y-77785713D02*
X178765295Y-77785713D01*
X178765295Y-77785713D02*
X178670057Y-77738094D01*
X178670057Y-77738094D02*
X178622438Y-77690475D01*
X178622438Y-77690475D02*
X178574819Y-77595237D01*
X178574819Y-77595237D02*
X178574819Y-77404761D01*
X178574819Y-77404761D02*
X178622438Y-77309523D01*
X178622438Y-77309523D02*
X178670057Y-77261904D01*
X178670057Y-77261904D02*
X178765295Y-77214285D01*
X178765295Y-77214285D02*
X178812914Y-77214285D01*
X178812914Y-77214285D02*
X178908152Y-77261904D01*
X178908152Y-77261904D02*
X178955771Y-77309523D01*
X178955771Y-77309523D02*
X179003390Y-77404761D01*
X179003390Y-77404761D02*
X179003390Y-77595237D01*
X179003390Y-77595237D02*
X179051009Y-77690475D01*
X179051009Y-77690475D02*
X179098628Y-77738094D01*
X179098628Y-77738094D02*
X179193866Y-77785713D01*
X179193866Y-77785713D02*
X179384342Y-77785713D01*
X179384342Y-77785713D02*
X179479580Y-77738094D01*
X179479580Y-77738094D02*
X179527200Y-77690475D01*
X179527200Y-77690475D02*
X179574819Y-77595237D01*
X179574819Y-77595237D02*
X179574819Y-77404761D01*
X179574819Y-77404761D02*
X179527200Y-77309523D01*
X179527200Y-77309523D02*
X179479580Y-77261904D01*
X179479580Y-77261904D02*
X179384342Y-77214285D01*
X179384342Y-77214285D02*
X179193866Y-77214285D01*
X179193866Y-77214285D02*
X179098628Y-77261904D01*
X179098628Y-77261904D02*
X179051009Y-77309523D01*
X179051009Y-77309523D02*
X179003390Y-77404761D01*
X178574819Y-78261904D02*
X177574819Y-78261904D01*
X178574819Y-77690476D02*
X178003390Y-78119047D01*
X177574819Y-77690476D02*
X178146247Y-78261904D01*
D14*
X157703690Y-44803479D02*
X157703690Y-45317526D01*
X157703690Y-45317526D02*
X157733928Y-45378002D01*
X157733928Y-45378002D02*
X157764166Y-45408241D01*
X157764166Y-45408241D02*
X157824642Y-45438479D01*
X157824642Y-45438479D02*
X157945595Y-45438479D01*
X157945595Y-45438479D02*
X158006071Y-45408241D01*
X158006071Y-45408241D02*
X158036309Y-45378002D01*
X158036309Y-45378002D02*
X158066547Y-45317526D01*
X158066547Y-45317526D02*
X158066547Y-44803479D01*
X158701547Y-45438479D02*
X158338690Y-45438479D01*
X158520118Y-45438479D02*
X158520118Y-44803479D01*
X158520118Y-44803479D02*
X158459642Y-44894193D01*
X158459642Y-44894193D02*
X158399166Y-44954669D01*
X158399166Y-44954669D02*
X158338690Y-44984907D01*
D12*
X171574819Y-78738094D02*
X170574819Y-78738094D01*
X170574819Y-78738094D02*
X170574819Y-78499999D01*
X170574819Y-78499999D02*
X170622438Y-78357142D01*
X170622438Y-78357142D02*
X170717676Y-78261904D01*
X170717676Y-78261904D02*
X170812914Y-78214285D01*
X170812914Y-78214285D02*
X171003390Y-78166666D01*
X171003390Y-78166666D02*
X171146247Y-78166666D01*
X171146247Y-78166666D02*
X171336723Y-78214285D01*
X171336723Y-78214285D02*
X171431961Y-78261904D01*
X171431961Y-78261904D02*
X171527200Y-78357142D01*
X171527200Y-78357142D02*
X171574819Y-78499999D01*
X171574819Y-78499999D02*
X171574819Y-78738094D01*
X170574819Y-77309523D02*
X170574819Y-77499999D01*
X170574819Y-77499999D02*
X170622438Y-77595237D01*
X170622438Y-77595237D02*
X170670057Y-77642856D01*
X170670057Y-77642856D02*
X170812914Y-77738094D01*
X170812914Y-77738094D02*
X171003390Y-77785713D01*
X171003390Y-77785713D02*
X171384342Y-77785713D01*
X171384342Y-77785713D02*
X171479580Y-77738094D01*
X171479580Y-77738094D02*
X171527200Y-77690475D01*
X171527200Y-77690475D02*
X171574819Y-77595237D01*
X171574819Y-77595237D02*
X171574819Y-77404761D01*
X171574819Y-77404761D02*
X171527200Y-77309523D01*
X171527200Y-77309523D02*
X171479580Y-77261904D01*
X171479580Y-77261904D02*
X171384342Y-77214285D01*
X171384342Y-77214285D02*
X171146247Y-77214285D01*
X171146247Y-77214285D02*
X171051009Y-77261904D01*
X171051009Y-77261904D02*
X171003390Y-77309523D01*
X171003390Y-77309523D02*
X170955771Y-77404761D01*
X170955771Y-77404761D02*
X170955771Y-77595237D01*
X170955771Y-77595237D02*
X171003390Y-77690475D01*
X171003390Y-77690475D02*
X171051009Y-77738094D01*
X171051009Y-77738094D02*
X171146247Y-77785713D01*
X171254819Y-74451904D02*
X170254819Y-74451904D01*
X171254819Y-73880476D02*
X170683390Y-74309047D01*
X170254819Y-73880476D02*
X170826247Y-74451904D01*
X141472917Y-87783200D02*
X141615774Y-87830819D01*
X141615774Y-87830819D02*
X141853869Y-87830819D01*
X141853869Y-87830819D02*
X141949107Y-87783200D01*
X141949107Y-87783200D02*
X141996726Y-87735580D01*
X141996726Y-87735580D02*
X142044345Y-87640342D01*
X142044345Y-87640342D02*
X142044345Y-87545104D01*
X142044345Y-87545104D02*
X141996726Y-87449866D01*
X141996726Y-87449866D02*
X141949107Y-87402247D01*
X141949107Y-87402247D02*
X141853869Y-87354628D01*
X141853869Y-87354628D02*
X141663393Y-87307009D01*
X141663393Y-87307009D02*
X141568155Y-87259390D01*
X141568155Y-87259390D02*
X141520536Y-87211771D01*
X141520536Y-87211771D02*
X141472917Y-87116533D01*
X141472917Y-87116533D02*
X141472917Y-87021295D01*
X141472917Y-87021295D02*
X141520536Y-86926057D01*
X141520536Y-86926057D02*
X141568155Y-86878438D01*
X141568155Y-86878438D02*
X141663393Y-86830819D01*
X141663393Y-86830819D02*
X141901488Y-86830819D01*
X141901488Y-86830819D02*
X142044345Y-86878438D01*
X142377679Y-86830819D02*
X142615774Y-87830819D01*
X142615774Y-87830819D02*
X142806250Y-87116533D01*
X142806250Y-87116533D02*
X142996726Y-87830819D01*
X142996726Y-87830819D02*
X143234822Y-86830819D01*
X144091964Y-86830819D02*
X143615774Y-86830819D01*
X143615774Y-86830819D02*
X143568155Y-87307009D01*
X143568155Y-87307009D02*
X143615774Y-87259390D01*
X143615774Y-87259390D02*
X143711012Y-87211771D01*
X143711012Y-87211771D02*
X143949107Y-87211771D01*
X143949107Y-87211771D02*
X144044345Y-87259390D01*
X144044345Y-87259390D02*
X144091964Y-87307009D01*
X144091964Y-87307009D02*
X144139583Y-87402247D01*
X144139583Y-87402247D02*
X144139583Y-87640342D01*
X144139583Y-87640342D02*
X144091964Y-87735580D01*
X144091964Y-87735580D02*
X144044345Y-87783200D01*
X144044345Y-87783200D02*
X143949107Y-87830819D01*
X143949107Y-87830819D02*
X143711012Y-87830819D01*
X143711012Y-87830819D02*
X143615774Y-87783200D01*
X143615774Y-87783200D02*
X143568155Y-87735580D01*
X159574819Y-78738094D02*
X158574819Y-78738094D01*
X158574819Y-78738094D02*
X158574819Y-78499999D01*
X158574819Y-78499999D02*
X158622438Y-78357142D01*
X158622438Y-78357142D02*
X158717676Y-78261904D01*
X158717676Y-78261904D02*
X158812914Y-78214285D01*
X158812914Y-78214285D02*
X159003390Y-78166666D01*
X159003390Y-78166666D02*
X159146247Y-78166666D01*
X159146247Y-78166666D02*
X159336723Y-78214285D01*
X159336723Y-78214285D02*
X159431961Y-78261904D01*
X159431961Y-78261904D02*
X159527200Y-78357142D01*
X159527200Y-78357142D02*
X159574819Y-78499999D01*
X159574819Y-78499999D02*
X159574819Y-78738094D01*
X158574819Y-77833332D02*
X158574819Y-77214285D01*
X158574819Y-77214285D02*
X158955771Y-77547618D01*
X158955771Y-77547618D02*
X158955771Y-77404761D01*
X158955771Y-77404761D02*
X159003390Y-77309523D01*
X159003390Y-77309523D02*
X159051009Y-77261904D01*
X159051009Y-77261904D02*
X159146247Y-77214285D01*
X159146247Y-77214285D02*
X159384342Y-77214285D01*
X159384342Y-77214285D02*
X159479580Y-77261904D01*
X159479580Y-77261904D02*
X159527200Y-77309523D01*
X159527200Y-77309523D02*
X159574819Y-77404761D01*
X159574819Y-77404761D02*
X159574819Y-77690475D01*
X159574819Y-77690475D02*
X159527200Y-77785713D01*
X159527200Y-77785713D02*
X159479580Y-77833332D01*
X159254819Y-74451904D02*
X158254819Y-74451904D01*
X159254819Y-73880476D02*
X158683390Y-74309047D01*
X158254819Y-73880476D02*
X158826247Y-74451904D01*
X182261905Y-89954819D02*
X182261905Y-88954819D01*
X182261905Y-88954819D02*
X182500000Y-88954819D01*
X182500000Y-88954819D02*
X182642857Y-89002438D01*
X182642857Y-89002438D02*
X182738095Y-89097676D01*
X182738095Y-89097676D02*
X182785714Y-89192914D01*
X182785714Y-89192914D02*
X182833333Y-89383390D01*
X182833333Y-89383390D02*
X182833333Y-89526247D01*
X182833333Y-89526247D02*
X182785714Y-89716723D01*
X182785714Y-89716723D02*
X182738095Y-89811961D01*
X182738095Y-89811961D02*
X182642857Y-89907200D01*
X182642857Y-89907200D02*
X182500000Y-89954819D01*
X182500000Y-89954819D02*
X182261905Y-89954819D01*
X183214286Y-89050057D02*
X183261905Y-89002438D01*
X183261905Y-89002438D02*
X183357143Y-88954819D01*
X183357143Y-88954819D02*
X183595238Y-88954819D01*
X183595238Y-88954819D02*
X183690476Y-89002438D01*
X183690476Y-89002438D02*
X183738095Y-89050057D01*
X183738095Y-89050057D02*
X183785714Y-89145295D01*
X183785714Y-89145295D02*
X183785714Y-89240533D01*
X183785714Y-89240533D02*
X183738095Y-89383390D01*
X183738095Y-89383390D02*
X183166667Y-89954819D01*
X183166667Y-89954819D02*
X183785714Y-89954819D01*
X137022917Y-69407200D02*
X137165774Y-69454819D01*
X137165774Y-69454819D02*
X137403869Y-69454819D01*
X137403869Y-69454819D02*
X137499107Y-69407200D01*
X137499107Y-69407200D02*
X137546726Y-69359580D01*
X137546726Y-69359580D02*
X137594345Y-69264342D01*
X137594345Y-69264342D02*
X137594345Y-69169104D01*
X137594345Y-69169104D02*
X137546726Y-69073866D01*
X137546726Y-69073866D02*
X137499107Y-69026247D01*
X137499107Y-69026247D02*
X137403869Y-68978628D01*
X137403869Y-68978628D02*
X137213393Y-68931009D01*
X137213393Y-68931009D02*
X137118155Y-68883390D01*
X137118155Y-68883390D02*
X137070536Y-68835771D01*
X137070536Y-68835771D02*
X137022917Y-68740533D01*
X137022917Y-68740533D02*
X137022917Y-68645295D01*
X137022917Y-68645295D02*
X137070536Y-68550057D01*
X137070536Y-68550057D02*
X137118155Y-68502438D01*
X137118155Y-68502438D02*
X137213393Y-68454819D01*
X137213393Y-68454819D02*
X137451488Y-68454819D01*
X137451488Y-68454819D02*
X137594345Y-68502438D01*
X137927679Y-68454819D02*
X138165774Y-69454819D01*
X138165774Y-69454819D02*
X138356250Y-68740533D01*
X138356250Y-68740533D02*
X138546726Y-69454819D01*
X138546726Y-69454819D02*
X138784822Y-68454819D01*
X139594345Y-68454819D02*
X139403869Y-68454819D01*
X139403869Y-68454819D02*
X139308631Y-68502438D01*
X139308631Y-68502438D02*
X139261012Y-68550057D01*
X139261012Y-68550057D02*
X139165774Y-68692914D01*
X139165774Y-68692914D02*
X139118155Y-68883390D01*
X139118155Y-68883390D02*
X139118155Y-69264342D01*
X139118155Y-69264342D02*
X139165774Y-69359580D01*
X139165774Y-69359580D02*
X139213393Y-69407200D01*
X139213393Y-69407200D02*
X139308631Y-69454819D01*
X139308631Y-69454819D02*
X139499107Y-69454819D01*
X139499107Y-69454819D02*
X139594345Y-69407200D01*
X139594345Y-69407200D02*
X139641964Y-69359580D01*
X139641964Y-69359580D02*
X139689583Y-69264342D01*
X139689583Y-69264342D02*
X139689583Y-69026247D01*
X139689583Y-69026247D02*
X139641964Y-68931009D01*
X139641964Y-68931009D02*
X139594345Y-68883390D01*
X139594345Y-68883390D02*
X139499107Y-68835771D01*
X139499107Y-68835771D02*
X139308631Y-68835771D01*
X139308631Y-68835771D02*
X139213393Y-68883390D01*
X139213393Y-68883390D02*
X139165774Y-68931009D01*
X139165774Y-68931009D02*
X139118155Y-69026247D01*
X103372917Y-87783200D02*
X103515774Y-87830819D01*
X103515774Y-87830819D02*
X103753869Y-87830819D01*
X103753869Y-87830819D02*
X103849107Y-87783200D01*
X103849107Y-87783200D02*
X103896726Y-87735580D01*
X103896726Y-87735580D02*
X103944345Y-87640342D01*
X103944345Y-87640342D02*
X103944345Y-87545104D01*
X103944345Y-87545104D02*
X103896726Y-87449866D01*
X103896726Y-87449866D02*
X103849107Y-87402247D01*
X103849107Y-87402247D02*
X103753869Y-87354628D01*
X103753869Y-87354628D02*
X103563393Y-87307009D01*
X103563393Y-87307009D02*
X103468155Y-87259390D01*
X103468155Y-87259390D02*
X103420536Y-87211771D01*
X103420536Y-87211771D02*
X103372917Y-87116533D01*
X103372917Y-87116533D02*
X103372917Y-87021295D01*
X103372917Y-87021295D02*
X103420536Y-86926057D01*
X103420536Y-86926057D02*
X103468155Y-86878438D01*
X103468155Y-86878438D02*
X103563393Y-86830819D01*
X103563393Y-86830819D02*
X103801488Y-86830819D01*
X103801488Y-86830819D02*
X103944345Y-86878438D01*
X104277679Y-86830819D02*
X104515774Y-87830819D01*
X104515774Y-87830819D02*
X104706250Y-87116533D01*
X104706250Y-87116533D02*
X104896726Y-87830819D01*
X104896726Y-87830819D02*
X105134822Y-86830819D01*
X105420536Y-86830819D02*
X106039583Y-86830819D01*
X106039583Y-86830819D02*
X105706250Y-87211771D01*
X105706250Y-87211771D02*
X105849107Y-87211771D01*
X105849107Y-87211771D02*
X105944345Y-87259390D01*
X105944345Y-87259390D02*
X105991964Y-87307009D01*
X105991964Y-87307009D02*
X106039583Y-87402247D01*
X106039583Y-87402247D02*
X106039583Y-87640342D01*
X106039583Y-87640342D02*
X105991964Y-87735580D01*
X105991964Y-87735580D02*
X105944345Y-87783200D01*
X105944345Y-87783200D02*
X105849107Y-87830819D01*
X105849107Y-87830819D02*
X105563393Y-87830819D01*
X105563393Y-87830819D02*
X105468155Y-87783200D01*
X105468155Y-87783200D02*
X105420536Y-87735580D01*
D13*
D12*
X111916666Y-51074819D02*
X111916666Y-51789104D01*
X111916666Y-51789104D02*
X111869047Y-51931961D01*
X111869047Y-51931961D02*
X111773809Y-52027200D01*
X111773809Y-52027200D02*
X111630952Y-52074819D01*
X111630952Y-52074819D02*
X111535714Y-52074819D01*
X112916666Y-52074819D02*
X112345238Y-52074819D01*
X112630952Y-52074819D02*
X112630952Y-51074819D01*
X112630952Y-51074819D02*
X112535714Y-51217676D01*
X112535714Y-51217676D02*
X112440476Y-51312914D01*
X112440476Y-51312914D02*
X112345238Y-51360533D01*
X122422917Y-68733200D02*
X122565774Y-68780819D01*
X122565774Y-68780819D02*
X122803869Y-68780819D01*
X122803869Y-68780819D02*
X122899107Y-68733200D01*
X122899107Y-68733200D02*
X122946726Y-68685580D01*
X122946726Y-68685580D02*
X122994345Y-68590342D01*
X122994345Y-68590342D02*
X122994345Y-68495104D01*
X122994345Y-68495104D02*
X122946726Y-68399866D01*
X122946726Y-68399866D02*
X122899107Y-68352247D01*
X122899107Y-68352247D02*
X122803869Y-68304628D01*
X122803869Y-68304628D02*
X122613393Y-68257009D01*
X122613393Y-68257009D02*
X122518155Y-68209390D01*
X122518155Y-68209390D02*
X122470536Y-68161771D01*
X122470536Y-68161771D02*
X122422917Y-68066533D01*
X122422917Y-68066533D02*
X122422917Y-67971295D01*
X122422917Y-67971295D02*
X122470536Y-67876057D01*
X122470536Y-67876057D02*
X122518155Y-67828438D01*
X122518155Y-67828438D02*
X122613393Y-67780819D01*
X122613393Y-67780819D02*
X122851488Y-67780819D01*
X122851488Y-67780819D02*
X122994345Y-67828438D01*
X123327679Y-67780819D02*
X123565774Y-68780819D01*
X123565774Y-68780819D02*
X123756250Y-68066533D01*
X123756250Y-68066533D02*
X123946726Y-68780819D01*
X123946726Y-68780819D02*
X124184822Y-67780819D01*
X124518155Y-67876057D02*
X124565774Y-67828438D01*
X124565774Y-67828438D02*
X124661012Y-67780819D01*
X124661012Y-67780819D02*
X124899107Y-67780819D01*
X124899107Y-67780819D02*
X124994345Y-67828438D01*
X124994345Y-67828438D02*
X125041964Y-67876057D01*
X125041964Y-67876057D02*
X125089583Y-67971295D01*
X125089583Y-67971295D02*
X125089583Y-68066533D01*
X125089583Y-68066533D02*
X125041964Y-68209390D01*
X125041964Y-68209390D02*
X124470536Y-68780819D01*
X124470536Y-68780819D02*
X125089583Y-68780819D01*
X140261905Y-54954819D02*
X140261905Y-53954819D01*
X140261905Y-53954819D02*
X140500000Y-53954819D01*
X140500000Y-53954819D02*
X140642857Y-54002438D01*
X140642857Y-54002438D02*
X140738095Y-54097676D01*
X140738095Y-54097676D02*
X140785714Y-54192914D01*
X140785714Y-54192914D02*
X140833333Y-54383390D01*
X140833333Y-54383390D02*
X140833333Y-54526247D01*
X140833333Y-54526247D02*
X140785714Y-54716723D01*
X140785714Y-54716723D02*
X140738095Y-54811961D01*
X140738095Y-54811961D02*
X140642857Y-54907200D01*
X140642857Y-54907200D02*
X140500000Y-54954819D01*
X140500000Y-54954819D02*
X140261905Y-54954819D01*
X141785714Y-54954819D02*
X141214286Y-54954819D01*
X141500000Y-54954819D02*
X141500000Y-53954819D01*
X141500000Y-53954819D02*
X141404762Y-54097676D01*
X141404762Y-54097676D02*
X141309524Y-54192914D01*
X141309524Y-54192914D02*
X141214286Y-54240533D01*
D15*
%TO.C,D7*%
X173000000Y-75230000D02*
X173000000Y-75880000D01*
X173000000Y-80770000D02*
X173000000Y-80120000D01*
X174120000Y-76480000D02*
X171880000Y-76480000D01*
X174120000Y-76600000D02*
X171880000Y-76600000D01*
X174120000Y-76720000D02*
X171880000Y-76720000D01*
X174120000Y-75880000D02*
X171880000Y-75880000D01*
X171880000Y-80120000D01*
X174120000Y-80120000D01*
X174120000Y-75880000D01*
%TO.C,SW4*%
X116771250Y-88265000D02*
X130741250Y-88265000D01*
X116771250Y-102235000D02*
X116771250Y-88265000D01*
X130741250Y-88265000D02*
X130741250Y-102235000D01*
X130741250Y-102235000D02*
X116771250Y-102235000D01*
%TO.C,SW1*%
X97721250Y-69215000D02*
X111691250Y-69215000D01*
X97721250Y-83185000D02*
X97721250Y-69215000D01*
X111691250Y-69215000D02*
X111691250Y-83185000D01*
X111691250Y-83185000D02*
X97721250Y-83185000D01*
%TO.C,D5*%
X165000000Y-75230000D02*
X165000000Y-75880000D01*
X165000000Y-80770000D02*
X165000000Y-80120000D01*
X166120000Y-76480000D02*
X163880000Y-76480000D01*
X166120000Y-76600000D02*
X163880000Y-76600000D01*
X166120000Y-76720000D02*
X163880000Y-76720000D01*
X166120000Y-75880000D02*
X163880000Y-75880000D01*
X163880000Y-80120000D01*
X166120000Y-80120000D01*
X166120000Y-75880000D01*
D16*
%TO.C, *%
G36*
X168921524Y-86844515D02*
G01*
X168968625Y-86950113D01*
X169036154Y-87145224D01*
X169130646Y-87447350D01*
X169258639Y-87873993D01*
X169426668Y-88442654D01*
X169641271Y-89170836D01*
X169685016Y-89319071D01*
X169931506Y-90167033D01*
X170120870Y-90849452D01*
X170256030Y-91379095D01*
X170339906Y-91768729D01*
X170375418Y-92031119D01*
X170365489Y-92179032D01*
X170346813Y-92211806D01*
X170223318Y-92244428D01*
X169966406Y-92263210D01*
X169630543Y-92264283D01*
X169614351Y-92263850D01*
X169246589Y-92244160D01*
X169017978Y-92201912D01*
X168879764Y-92124148D01*
X168817925Y-92052183D01*
X168619583Y-91902533D01*
X168371704Y-91878626D01*
X168136385Y-91963253D01*
X167975723Y-92139201D01*
X167940740Y-92295309D01*
X168012575Y-92559056D01*
X168192064Y-92737346D01*
X168425184Y-92810500D01*
X168657910Y-92758841D01*
X168809239Y-92611664D01*
X168899095Y-92511632D01*
X169043703Y-92454293D01*
X169289904Y-92428637D01*
X169609666Y-92423516D01*
X169971972Y-92430714D01*
X170182325Y-92457458D01*
X170276547Y-92511475D01*
X170292592Y-92570811D01*
X170221944Y-92843502D01*
X170031529Y-93165564D01*
X169887646Y-93341265D01*
X169694360Y-93553460D01*
X169476439Y-93348734D01*
X169286675Y-93209282D01*
X169199880Y-93221772D01*
X169234623Y-93369993D01*
X169307489Y-93496247D01*
X169408292Y-93669424D01*
X169398898Y-93753163D01*
X169313808Y-93797156D01*
X169119171Y-93792241D01*
X169021394Y-93739559D01*
X168908458Y-93678236D01*
X168867116Y-93762948D01*
X168875149Y-93943885D01*
X168827736Y-94124699D01*
X168681849Y-94176817D01*
X168548101Y-94113429D01*
X168432068Y-94055428D01*
X168400259Y-94081812D01*
X168382471Y-94244178D01*
X168376741Y-94304997D01*
X168320430Y-94386803D01*
X168147951Y-94438711D01*
X167827175Y-94469100D01*
X167729073Y-94473925D01*
X167392195Y-94484325D01*
X167201695Y-94470876D01*
X167116223Y-94422308D01*
X167094430Y-94327353D01*
X167094073Y-94300856D01*
X167162503Y-94085981D01*
X167276894Y-93943780D01*
X167431152Y-93749752D01*
X167488560Y-93599442D01*
X167482815Y-93487816D01*
X167393458Y-93425688D01*
X167178063Y-93393297D01*
X167023518Y-93382859D01*
X166690547Y-93392709D01*
X166532859Y-93470844D01*
X166550331Y-93617488D01*
X166742839Y-93832863D01*
X166764814Y-93852214D01*
X166931353Y-94058161D01*
X166998786Y-94268306D01*
X166962342Y-94430619D01*
X166823610Y-94493145D01*
X166598104Y-94508459D01*
X166376759Y-94537780D01*
X166098810Y-94540747D01*
X165894629Y-94493774D01*
X165731125Y-94371784D01*
X165682962Y-94259199D01*
X165633886Y-94159595D01*
X165461544Y-94168908D01*
X165448654Y-94172072D01*
X165241005Y-94176981D01*
X165159624Y-94088280D01*
X165033066Y-93956766D01*
X164876526Y-93888362D01*
X164691210Y-93774787D01*
X164663105Y-93600029D01*
X164799091Y-93416044D01*
X164812629Y-93405838D01*
X164914779Y-93284111D01*
X164906332Y-93214787D01*
X164797698Y-93222412D01*
X164630234Y-93337100D01*
X164618271Y-93348135D01*
X164400989Y-93552261D01*
X164154257Y-93293629D01*
X163865811Y-92888796D01*
X163718985Y-92416372D01*
X163717911Y-92329442D01*
X164459999Y-92329442D01*
X164543112Y-92389859D01*
X164749257Y-92421942D01*
X164813666Y-92423516D01*
X165109924Y-92466419D01*
X165282204Y-92607506D01*
X165284834Y-92611664D01*
X165471784Y-92765579D01*
X165706949Y-92788981D01*
X165912773Y-92682420D01*
X165967782Y-92606811D01*
X166049551Y-92307725D01*
X165966409Y-92062033D01*
X165743671Y-91909897D01*
X165530042Y-91864580D01*
X165380717Y-91940804D01*
X165305259Y-92025596D01*
X165070801Y-92194890D01*
X164797698Y-92235368D01*
X164576738Y-92258447D01*
X164463794Y-92315374D01*
X164459999Y-92329442D01*
X163717911Y-92329442D01*
X163712086Y-91857946D01*
X163843418Y-91195106D01*
X163933815Y-90898010D01*
X164048210Y-90535974D01*
X164196949Y-90043762D01*
X164364860Y-89472714D01*
X164536773Y-88874170D01*
X164634743Y-88526028D01*
X164784257Y-88007758D01*
X164923959Y-87556139D01*
X165043834Y-87201069D01*
X165133865Y-86972448D01*
X165179510Y-86899852D01*
X165246069Y-86969974D01*
X165343307Y-87188425D01*
X165457339Y-87520738D01*
X165532102Y-87775026D01*
X165654790Y-88201560D01*
X165775170Y-88593318D01*
X165875053Y-88892211D01*
X165913552Y-88993323D01*
X166008791Y-89189983D01*
X166116706Y-89260612D01*
X166309874Y-89238205D01*
X166403867Y-89216216D01*
X166687396Y-89179622D01*
X167069874Y-89169963D01*
X167429042Y-89186628D01*
X168093271Y-89243765D01*
X168398229Y-88223085D01*
X168531223Y-87787621D01*
X168655302Y-87398489D01*
X168754890Y-87103581D01*
X168806663Y-86967220D01*
X168837420Y-86889783D01*
X168862458Y-86831852D01*
X168888314Y-86810929D01*
X168921524Y-86844515D01*
G37*
D15*
%TO.C,D4*%
X161000000Y-75230000D02*
X161000000Y-75880000D01*
X161000000Y-80770000D02*
X161000000Y-80120000D01*
X162120000Y-76480000D02*
X159880000Y-76480000D01*
X162120000Y-76600000D02*
X159880000Y-76600000D01*
X162120000Y-76720000D02*
X159880000Y-76720000D01*
X162120000Y-75880000D02*
X159880000Y-75880000D01*
X159880000Y-80120000D01*
X162120000Y-80120000D01*
X162120000Y-75880000D01*
%TO.C,D8*%
X177000000Y-75230000D02*
X177000000Y-75880000D01*
X177000000Y-80770000D02*
X177000000Y-80120000D01*
X178120000Y-76480000D02*
X175880000Y-76480000D01*
X178120000Y-76600000D02*
X175880000Y-76600000D01*
X178120000Y-76720000D02*
X175880000Y-76720000D01*
X178120000Y-75880000D02*
X175880000Y-75880000D01*
X175880000Y-80120000D01*
X178120000Y-80120000D01*
X178120000Y-75880000D01*
D17*
%TO.C,U1*%
X157797500Y-65659000D02*
X157797500Y-48514000D01*
X159702500Y-67564000D02*
X173672500Y-67564000D01*
X162192500Y-46609000D02*
X162196228Y-45698728D01*
X162696228Y-45199000D02*
X170691500Y-45199000D01*
X171191500Y-45699000D02*
X171191500Y-46609000D01*
D10*
X173672500Y-46609000D02*
X159702500Y-46609000D01*
D17*
X173672500Y-46609000D02*
X159702500Y-46609000D01*
X175577500Y-65659000D02*
X175577500Y-48514000D01*
X157797500Y-48514000D02*
G75*
G02*
X159702500Y-46609000I1905001J-1D01*
G01*
X159702500Y-67564000D02*
G75*
G02*
X157797500Y-65659000I1J1905001D01*
G01*
X162196228Y-45698728D02*
G75*
G02*
X162696228Y-45199001I500018J-291D01*
G01*
X170691500Y-45199000D02*
G75*
G02*
X171191500Y-45699000I0J-500000D01*
G01*
X173672500Y-46609000D02*
G75*
G02*
X175577500Y-48514000I0J-1905000D01*
G01*
X175577500Y-65659000D02*
G75*
G02*
X173672500Y-67564000I-1905000J0D01*
G01*
D18*
X157989500Y-46850000D02*
G75*
G02*
X157485500Y-46850000I-252000J0D01*
G01*
X157485500Y-46850000D02*
G75*
G02*
X157989500Y-46850000I252000J0D01*
G01*
X159132500Y-47730000D02*
G75*
G02*
X158628500Y-47730000I-252000J0D01*
G01*
X158628500Y-47730000D02*
G75*
G02*
X159132500Y-47730000I252000J0D01*
G01*
D15*
%TO.C,D6*%
X169000000Y-75230000D02*
X169000000Y-75880000D01*
X169000000Y-80770000D02*
X169000000Y-80120000D01*
X170120000Y-76480000D02*
X167880000Y-76480000D01*
X170120000Y-76600000D02*
X167880000Y-76600000D01*
X170120000Y-76720000D02*
X167880000Y-76720000D01*
X170120000Y-75880000D02*
X167880000Y-75880000D01*
X167880000Y-80120000D01*
X170120000Y-80120000D01*
X170120000Y-75880000D01*
%TO.C,SW5*%
X135821250Y-88265000D02*
X149791250Y-88265000D01*
X135821250Y-102235000D02*
X135821250Y-88265000D01*
X149791250Y-88265000D02*
X149791250Y-102235000D01*
X149791250Y-102235000D02*
X135821250Y-102235000D01*
%TO.C,D3*%
X157000000Y-75230000D02*
X157000000Y-75880000D01*
X157000000Y-80770000D02*
X157000000Y-80120000D01*
X158120000Y-76480000D02*
X155880000Y-76480000D01*
X158120000Y-76600000D02*
X155880000Y-76600000D01*
X158120000Y-76720000D02*
X155880000Y-76720000D01*
X158120000Y-75880000D02*
X155880000Y-75880000D01*
X155880000Y-80120000D01*
X158120000Y-80120000D01*
X158120000Y-75880000D01*
%TO.C,D2*%
X179500000Y-90700000D02*
X179500000Y-95750000D01*
X179950000Y-90250000D02*
X179500000Y-90700000D01*
X180300000Y-92100000D02*
X180300000Y-93900000D01*
X185700000Y-92100000D02*
X185700000Y-93900000D01*
X186500000Y-90250000D02*
X179950000Y-90250000D01*
X186500000Y-95750000D02*
X179500000Y-95750000D01*
X186500000Y-95750000D02*
X186500000Y-90250000D01*
%TO.C,SW6*%
X135256250Y-72100000D02*
X135856250Y-72100000D01*
X135556250Y-72400000D02*
X135256250Y-72100000D01*
X135856250Y-72100000D02*
X135556250Y-72400000D01*
X136956250Y-70300000D02*
X136956250Y-82100000D01*
X141056250Y-70300000D02*
X136956250Y-70300000D01*
X141056250Y-82100000D02*
X136956250Y-82100000D01*
X142556250Y-76200000D02*
X143556250Y-76200000D01*
X143056250Y-75700000D02*
X143056250Y-76700000D01*
X145056250Y-70300000D02*
X149156250Y-70300000D01*
X149156250Y-70300000D02*
X149156250Y-72700000D01*
X149156250Y-74900000D02*
X149156250Y-77500000D01*
X149156250Y-79700000D02*
X149156250Y-82100000D01*
X149156250Y-82100000D02*
X145056250Y-82100000D01*
X146056250Y-76200000D02*
G75*
G02*
X140056250Y-76200000I-3000000J0D01*
G01*
X140056250Y-76200000D02*
G75*
G02*
X146056250Y-76200000I3000000J0D01*
G01*
%TO.C,SW3*%
X97721250Y-88265000D02*
X111691250Y-88265000D01*
X97721250Y-102235000D02*
X97721250Y-88265000D01*
X111691250Y-88265000D02*
X111691250Y-102235000D01*
X111691250Y-102235000D02*
X97721250Y-102235000D01*
D16*
%TO.C, *%
G36*
X99081694Y-55508071D02*
G01*
X99398640Y-55550391D01*
X99651027Y-55639847D01*
X99858655Y-55783524D01*
X99863359Y-55787795D01*
X99899533Y-55815919D01*
X99946716Y-55837883D01*
X100016410Y-55854610D01*
X100120117Y-55867023D01*
X100269338Y-55876046D01*
X100475577Y-55882600D01*
X100750335Y-55887610D01*
X101105113Y-55891998D01*
X101170712Y-55892711D01*
X101560315Y-55897822D01*
X101874841Y-55904724D01*
X102132592Y-55914743D01*
X102351872Y-55929204D01*
X102550984Y-55949433D01*
X102748232Y-55976756D01*
X102961918Y-56012498D01*
X103054412Y-56029142D01*
X103474937Y-56107147D01*
X103813969Y-56174334D01*
X104082205Y-56234756D01*
X104290342Y-56292469D01*
X104449078Y-56351527D01*
X104569110Y-56415985D01*
X104661134Y-56489898D01*
X104735849Y-56577319D01*
X104803952Y-56682304D01*
X104811531Y-56695155D01*
X104864473Y-56790989D01*
X104898434Y-56877079D01*
X104916571Y-56976299D01*
X104922042Y-57111522D01*
X104918005Y-57305620D01*
X104913373Y-57432804D01*
X104893279Y-57739662D01*
X104851282Y-57968202D01*
X104774515Y-58133050D01*
X104650109Y-58248831D01*
X104465200Y-58330171D01*
X104206919Y-58391697D01*
X104045078Y-58419788D01*
X103810375Y-58460955D01*
X103661668Y-58495733D01*
X103600209Y-58525696D01*
X103627248Y-58552420D01*
X103744034Y-58577478D01*
X103951818Y-58602445D01*
X104208312Y-58625378D01*
X104439300Y-58647102D01*
X104645722Y-58671722D01*
X104804271Y-58696127D01*
X104889011Y-58716165D01*
X104993907Y-58799040D01*
X105108728Y-58972423D01*
X105152796Y-59057438D01*
X105233834Y-59240808D01*
X105282719Y-59410608D01*
X105309411Y-59608404D01*
X105318478Y-59748923D01*
X105322818Y-59960799D01*
X105316397Y-60163006D01*
X105300625Y-60317537D01*
X105296595Y-60338804D01*
X105211077Y-60609910D01*
X105088593Y-60796717D01*
X104953976Y-60889228D01*
X104869260Y-60917208D01*
X104746943Y-60945182D01*
X104575292Y-60975040D01*
X104342572Y-61008675D01*
X104037050Y-61047979D01*
X103766452Y-61080726D01*
X103521324Y-61109866D01*
X103521324Y-61375738D01*
X103484908Y-61659631D01*
X103382302Y-61910779D01*
X103223467Y-62107989D01*
X103150728Y-62164187D01*
X102907071Y-62284718D01*
X102585805Y-62379066D01*
X102199098Y-62446743D01*
X101759118Y-62487263D01*
X101278032Y-62500137D01*
X100768009Y-62484880D01*
X100406149Y-62454742D01*
X100241217Y-62441005D01*
X99709824Y-62368023D01*
X99412500Y-62313806D01*
X99187426Y-62264400D01*
X99034490Y-62217950D01*
X98933071Y-62166625D01*
X98865551Y-62106095D01*
X98788670Y-61981736D01*
X98710127Y-61797553D01*
X98640674Y-61586271D01*
X98591067Y-61380619D01*
X98572059Y-61213323D01*
X98572059Y-61212913D01*
X98568238Y-61173849D01*
X99109007Y-61173849D01*
X99114500Y-61442136D01*
X99121903Y-61578585D01*
X99143620Y-61690278D01*
X99188101Y-61779563D01*
X99263793Y-61848791D01*
X99379146Y-61900308D01*
X99542610Y-61936466D01*
X99762632Y-61959613D01*
X100047662Y-61972097D01*
X100406149Y-61976269D01*
X100846543Y-61974477D01*
X101023346Y-61972858D01*
X101463784Y-61967015D01*
X101821657Y-61958068D01*
X102107771Y-61944460D01*
X102332931Y-61924634D01*
X102507941Y-61897033D01*
X102643606Y-61860098D01*
X102750732Y-61812273D01*
X102840124Y-61751999D01*
X102896583Y-61702837D01*
X102970645Y-61608036D01*
X103002978Y-61484622D01*
X103007721Y-61373611D01*
X103007721Y-61148793D01*
X101058364Y-61161321D01*
X100991778Y-61161749D01*
X99109007Y-61173849D01*
X98568238Y-61173849D01*
X98561299Y-61102919D01*
X98518569Y-61059333D01*
X98474783Y-61054412D01*
X98328680Y-61037137D01*
X98123974Y-60990736D01*
X97887688Y-60923344D01*
X97646845Y-60843095D01*
X97428468Y-60758125D01*
X97311228Y-60704143D01*
X97006332Y-60517948D01*
X96769250Y-60295622D01*
X96594230Y-60026797D01*
X96475521Y-59701110D01*
X96407370Y-59308194D01*
X96388578Y-59041423D01*
X96394284Y-58679135D01*
X96898897Y-58679135D01*
X96900166Y-59043660D01*
X96936396Y-59343142D01*
X97012995Y-59601122D01*
X97135368Y-59841138D01*
X97182590Y-59914309D01*
X97295537Y-60056069D01*
X97433533Y-60175193D01*
X97607780Y-60275991D01*
X97829478Y-60362769D01*
X98109829Y-60439835D01*
X98460034Y-60511498D01*
X98891296Y-60582064D01*
X98936476Y-60588807D01*
X99324254Y-60633122D01*
X99794862Y-60663230D01*
X100350102Y-60679151D01*
X100991778Y-60680906D01*
X101721692Y-60668515D01*
X102541647Y-60642000D01*
X102769612Y-60632803D01*
X103289801Y-60608846D01*
X103722552Y-60583925D01*
X104073806Y-60557395D01*
X104349508Y-60528613D01*
X104555600Y-60496934D01*
X104698025Y-60461715D01*
X104782727Y-60422313D01*
X104793613Y-60413558D01*
X104843346Y-60317101D01*
X104871083Y-60152100D01*
X104876017Y-59940958D01*
X104857339Y-59706079D01*
X104825801Y-59520536D01*
X104790817Y-59379619D01*
X104745916Y-59276378D01*
X104677020Y-59204421D01*
X104570050Y-59157354D01*
X104410929Y-59128787D01*
X104185579Y-59112327D01*
X103904672Y-59102294D01*
X103655249Y-59092452D01*
X103434888Y-59078910D01*
X103262513Y-59063193D01*
X103157044Y-59046829D01*
X103137871Y-59040466D01*
X103103285Y-59012460D01*
X103082176Y-58960907D01*
X103072942Y-58868730D01*
X103073982Y-58718852D01*
X103083691Y-58494198D01*
X103084716Y-58474018D01*
X103091313Y-58200431D01*
X103086733Y-57902635D01*
X103072118Y-57627168D01*
X103060961Y-57508433D01*
X103040914Y-57316558D01*
X103028536Y-57162890D01*
X103025341Y-57068630D01*
X103028197Y-57049622D01*
X103067850Y-57067293D01*
X103137183Y-57147959D01*
X103223405Y-57271450D01*
X103313724Y-57417595D01*
X103395351Y-57566223D01*
X103455494Y-57697163D01*
X103474565Y-57753525D01*
X103534867Y-57977822D01*
X103794314Y-57945406D01*
X104016931Y-57913645D01*
X104167045Y-57878723D01*
X104265348Y-57831564D01*
X104332530Y-57763092D01*
X104376000Y-57690274D01*
X104436206Y-57505189D01*
X104450258Y-57293589D01*
X104420754Y-57088514D01*
X104350293Y-56923003D01*
X104311945Y-56875988D01*
X104207837Y-56812356D01*
X104026990Y-56743333D01*
X103785569Y-56672982D01*
X103499736Y-56605362D01*
X103185655Y-56544537D01*
X102859492Y-56494566D01*
X102730706Y-56478692D01*
X102486624Y-56450068D01*
X102222174Y-56417872D01*
X101992267Y-56388795D01*
X101980515Y-56387262D01*
X101799160Y-56369440D01*
X101572848Y-56355940D01*
X101320411Y-56346870D01*
X101060680Y-56342334D01*
X100812489Y-56342442D01*
X100594670Y-56347298D01*
X100426054Y-56357010D01*
X100325474Y-56371685D01*
X100310167Y-56377796D01*
X100281960Y-56417327D01*
X100281592Y-56496381D01*
X100310318Y-56635056D01*
X100331274Y-56715592D01*
X100374507Y-56942694D01*
X100403033Y-57230157D01*
X100416860Y-57552097D01*
X100415995Y-57882628D01*
X100400446Y-58195868D01*
X100370219Y-58465931D01*
X100330732Y-58649816D01*
X100212235Y-58953960D01*
X100056683Y-59185791D01*
X99852924Y-59353458D01*
X99589802Y-59465109D01*
X99256164Y-59528891D01*
X99109007Y-59542241D01*
X98983210Y-59546173D01*
X98803881Y-59551778D01*
X98560494Y-59528521D01*
X98351178Y-59466635D01*
X98148265Y-59360284D01*
X98100469Y-59329501D01*
X97906345Y-59159646D01*
X97756269Y-58932840D01*
X97647928Y-58642176D01*
X97579008Y-58280751D01*
X97547198Y-57841659D01*
X97544408Y-57669302D01*
X97543488Y-57440627D01*
X98023794Y-57440627D01*
X98026226Y-57732124D01*
X98034444Y-58017540D01*
X98048070Y-58273947D01*
X98066728Y-58478419D01*
X98085107Y-58589549D01*
X98134667Y-58702324D01*
X98223292Y-58835354D01*
X98261973Y-58882305D01*
X98448041Y-59024806D01*
X98693026Y-59105623D01*
X98983210Y-59121757D01*
X99216468Y-59090812D01*
X99479999Y-58991163D01*
X99695052Y-58816237D01*
X99850773Y-58576223D01*
X99898294Y-58450686D01*
X99937160Y-58257914D01*
X99960586Y-58001223D01*
X99968524Y-57708798D01*
X99960924Y-57408827D01*
X99937735Y-57129494D01*
X99901036Y-56908114D01*
X99804389Y-56585871D01*
X99678918Y-56324282D01*
X99531277Y-56134958D01*
X99406871Y-56045825D01*
X99306270Y-56004653D01*
X99201510Y-55985556D01*
X99063499Y-55986407D01*
X98863146Y-56005077D01*
X98857905Y-56005663D01*
X98578335Y-56050062D01*
X98375920Y-56120611D01*
X98235156Y-56231854D01*
X98140539Y-56398336D01*
X98076565Y-56634602D01*
X98054985Y-56758911D01*
X98037796Y-56931094D01*
X98027525Y-57165974D01*
X98023794Y-57440627D01*
X97543488Y-57440627D01*
X97542341Y-57155699D01*
X97404838Y-57319118D01*
X97316976Y-57441115D01*
X97210783Y-57613768D01*
X97107055Y-57802941D01*
X97091947Y-57832721D01*
X97012032Y-57998581D01*
X96959815Y-58132790D01*
X96928355Y-58265766D01*
X96910717Y-58427928D01*
X96899962Y-58649692D01*
X96898897Y-58679135D01*
X96394284Y-58679135D01*
X96397448Y-58478250D01*
X96473097Y-57975950D01*
X96616427Y-57529213D01*
X96662465Y-57426586D01*
X96792209Y-57201624D01*
X96964693Y-56967759D01*
X97156728Y-56752372D01*
X97345129Y-56582845D01*
X97422835Y-56528637D01*
X97533340Y-56432276D01*
X97647326Y-56290152D01*
X97701962Y-56201844D01*
X97906407Y-55913013D01*
X98163678Y-55700983D01*
X98474068Y-55565607D01*
X98837867Y-55506740D01*
X99081694Y-55508071D01*
G37*
D15*
%TO.C,J1*%
X110870000Y-52620000D02*
X112250000Y-52620000D01*
X110870000Y-54000000D02*
X110870000Y-52620000D01*
X110870000Y-55270000D02*
X110870000Y-63000000D01*
X110870000Y-55270000D02*
X113630000Y-55270000D01*
X110870000Y-63000000D02*
X113630000Y-63000000D01*
X113630000Y-55270000D02*
X113630000Y-63000000D01*
%TO.C,SW2*%
X116771250Y-69215000D02*
X130741250Y-69215000D01*
X116771250Y-83185000D02*
X116771250Y-69215000D01*
X130741250Y-69215000D02*
X130741250Y-83185000D01*
X130741250Y-83185000D02*
X116771250Y-83185000D01*
%TO.C,D1*%
X137500000Y-55700000D02*
X137500000Y-60750000D01*
X137950000Y-55250000D02*
X137500000Y-55700000D01*
X138300000Y-57100000D02*
X138300000Y-58900000D01*
X143700000Y-57100000D02*
X143700000Y-58900000D01*
X144500000Y-55250000D02*
X137950000Y-55250000D01*
X144500000Y-60750000D02*
X137500000Y-60750000D01*
X144500000Y-60750000D02*
X144500000Y-55250000D01*
%TD*%
M02*
