M48
; DRILL file {KiCad 9.0.7} date 2026-01-11T22:49:21+0600
; FORMAT={-:-/ absolute / metric / decimal}
; #@! TF.CreationDate,2026-01-11T22:49:21+06:00
; #@! TF.GenerationSoftware,Kicad,Pcbnew,9.0.7
; #@! TF.FileFunction,Plated,1,2,PTH
FMAT,2
METRIC
; #@! TA.AperFunction,Plated,PTH,ViaDrill
T1C0.300
; #@! TA.AperFunction,Plated,PTH,ComponentDrill
T2C0.800
; #@! TA.AperFunction,Plated,PTH,ComponentDrill
T3C0.889
; #@! TA.AperFunction,Plated,PTH,ComponentDrill
T4C1.000
; #@! TA.AperFunction,Plated,PTH,ComponentDrill
T5C1.500
%
G90
G05
T1
X128.0Y-102.0
X132.0Y-72.0
X136.0Y-52.0
X136.0Y-101.0
X137.0Y-50.0
X138.0Y-72.0
X139.0Y-76.0
X139.0Y-103.975
X140.0Y-74.0
X141.0Y-62.0
X141.0Y-90.0
X141.0Y-103.0
X142.0Y-65.0
X142.0Y-67.0
X146.0Y-56.0
X146.0Y-85.0
X150.0Y-56.0
X151.0Y-98.0
X152.0Y-85.0
X153.0Y-59.0
X153.0Y-61.0
X153.999Y-67.0
X160.0Y-68.0
X163.0Y-68.0
X166.0Y-68.0
X168.0Y-68.0
X171.0Y-68.0
X174.0Y-68.0
X178.0Y-62.0
X178.0Y-91.0
X180.0Y-97.0
X187.0Y-97.0
T2
X157.0Y-74.19
X157.0Y-81.81
X161.0Y-74.19
X161.0Y-81.81
X165.0Y-74.19
X165.0Y-81.81
X169.0Y-74.19
X169.0Y-81.81
X173.0Y-74.19
X173.0Y-81.81
X177.0Y-74.19
X177.0Y-81.81
T3
X159.067Y-49.53
X159.067Y-52.07
X159.067Y-54.61
X159.067Y-57.15
X159.067Y-59.69
X159.067Y-62.23
X159.067Y-64.77
X174.308Y-49.53
X174.308Y-52.07
X174.308Y-54.61
X174.308Y-57.15
X174.308Y-59.69
X174.308Y-62.23
X174.308Y-64.77
T4
X112.25Y-54.0
X112.25Y-56.54
X112.25Y-59.08
X112.25Y-61.62
X135.556Y-73.7
X135.556Y-76.2
X135.556Y-78.7
X150.056Y-73.7
X150.056Y-78.7
T5
X100.896Y-73.66
X100.896Y-92.71
X107.246Y-71.12
X107.246Y-90.17
X119.946Y-73.66
X119.946Y-92.71
X126.296Y-71.12
X126.296Y-90.17
X138.996Y-92.71
X145.346Y-90.17
T5
G00X142.406Y-70.6
M15
G01X143.706Y-70.6
M16
G05
G00X142.406Y-81.8
M15
G01X143.706Y-81.8
M16
G05
M30
