%TF.GenerationSoftware,KiCad,Pcbnew,9.0.7*%
%TF.CreationDate,2026-01-11T22:49:09+06:00*%
%TF.ProjectId,pcb,7063622e-6b69-4636-9164-5f7063625858,rev?*%
%TF.SameCoordinates,Original*%
%TF.FileFunction,Soldermask,Bot*%
%TF.FilePolarity,Negative*%
%FSLAX46Y46*%
G04 Gerber Fmt 4.6, Leading zero omitted, Abs format (unit mm)*
G04 Created by KiCad (PCBNEW 9.0.7) date 2026-01-11 22:49:09*
%MOMM*%
%LPD*%
G01*
G04 APERTURE LIST*
G04 Aperture macros list*
%AMRoundRect*
0 Rectangle with rounded corners*
0 $1 Rounding radius*
0 $2 $3 $4 $5 $6 $7 $8 $9 X,Y pos of 4 corners*
0 Add a 4 corners polygon primitive as box body*
4,1,4,$2,$3,$4,$5,$6,$7,$8,$9,$2,$3,0*
0 Add four circle primitives for the rounded corners*
1,1,$1+$1,$2,$3*
1,1,$1+$1,$4,$5*
1,1,$1+$1,$6,$7*
1,1,$1+$1,$8,$9*
0 Add four rect primitives between the rounded corners*
20,1,$1+$1,$2,$3,$4,$5,0*
20,1,$1+$1,$4,$5,$6,$7,0*
20,1,$1+$1,$6,$7,$8,$9,0*
20,1,$1+$1,$8,$9,$2,$3,0*%
G04 Aperture macros list end*
%ADD10RoundRect,0.250000X-0.550000X0.550000X-0.550000X-0.550000X0.550000X-0.550000X0.550000X0.550000X0*%
%ADD11C,1.600000*%
%ADD12C,1.700000*%
%ADD13C,4.000000*%
%ADD14C,2.200000*%
%ADD15C,1.524000*%
%ADD16R,2.000000X2.000000*%
%ADD17C,2.000000*%
%ADD18R,3.200000X2.000000*%
%ADD19R,1.700000X1.700000*%
G04 APERTURE END LIST*
D10*
%TO.C,D7*%
X173000000Y-74190000D03*
D11*
X173000000Y-81810000D03*
%TD*%
D12*
%TO.C,SW4*%
X118676250Y-95250000D03*
D13*
X123756250Y-95250000D03*
D12*
X128836250Y-95250000D03*
D14*
X126296250Y-90170000D03*
X119946250Y-92710000D03*
%TD*%
D12*
%TO.C,SW1*%
X99626250Y-76200000D03*
D13*
X104706250Y-76200000D03*
D12*
X109786250Y-76200000D03*
D14*
X107246250Y-71120000D03*
X100896250Y-73660000D03*
%TD*%
D10*
%TO.C,D5*%
X165000000Y-74190000D03*
D11*
X165000000Y-81810000D03*
%TD*%
D10*
%TO.C,D4*%
X161000000Y-74190000D03*
D11*
X161000000Y-81810000D03*
%TD*%
D10*
%TO.C,D8*%
X177000000Y-74190000D03*
D11*
X177000000Y-81810000D03*
%TD*%
D15*
%TO.C,U1*%
X159067500Y-49530000D03*
X159067500Y-52070000D03*
X159067500Y-54610000D03*
X159067500Y-57150000D03*
X159067500Y-59690000D03*
X159067500Y-62230000D03*
X159067500Y-64770000D03*
X174307500Y-64770000D03*
X174307500Y-62230000D03*
X174307500Y-59690000D03*
X174307500Y-57150000D03*
X174307500Y-54610000D03*
X174307500Y-52070000D03*
X174307500Y-49530000D03*
%TD*%
D10*
%TO.C,D6*%
X169000000Y-74190000D03*
D11*
X169000000Y-81810000D03*
%TD*%
D12*
%TO.C,SW5*%
X137726250Y-95250000D03*
D13*
X142806250Y-95250000D03*
D12*
X147886250Y-95250000D03*
D14*
X145346250Y-90170000D03*
X138996250Y-92710000D03*
%TD*%
D10*
%TO.C,D3*%
X157000000Y-74190000D03*
D11*
X157000000Y-81810000D03*
%TD*%
D16*
%TO.C,SW6*%
X135556250Y-73700000D03*
D17*
X135556250Y-78700000D03*
X135556250Y-76200000D03*
D18*
X143056250Y-70600000D03*
X143056250Y-81800000D03*
D17*
X150056250Y-78700000D03*
X150056250Y-73700000D03*
%TD*%
D12*
%TO.C,SW3*%
X99626250Y-95250000D03*
D13*
X104706250Y-95250000D03*
D12*
X109786250Y-95250000D03*
D14*
X107246250Y-90170000D03*
X100896250Y-92710000D03*
%TD*%
D19*
%TO.C,J1*%
X112250000Y-54000000D03*
D12*
X112250000Y-56540000D03*
X112250000Y-59080000D03*
X112250000Y-61620000D03*
%TD*%
%TO.C,SW2*%
X118676250Y-76200000D03*
D13*
X123756250Y-76200000D03*
D12*
X128836250Y-76200000D03*
D14*
X126296250Y-71120000D03*
X119946250Y-73660000D03*
%TD*%
M02*
